<svg width="33" height="32" viewBox="0 0 33 32" fill="none" xmlns="http://www.w3.org/2000/svg">
<path d="M31.68 0H1.32C0.589875 0 0 0.572 0 1.28V30.72C0 31.428 0.589875 32 1.32 32H31.68C32.4101 32 33 31.428 33 30.72V1.28C33 0.572 32.4101 0 31.68 0ZM27.8685 9.34H25.2326C23.166 9.34 22.7659 10.292 22.7659 11.692V14.776H27.6994L27.0559 19.604H22.7659V32H17.622V19.608H13.3196V14.776H17.622V11.216C17.622 7.084 20.2249 4.832 24.0281 4.832C25.8514 4.832 27.4148 4.964 27.8726 5.024V9.34H27.8685Z" fill="#8ED8F8"/>
</svg>
