<svg width="33" height="32" viewBox="0 0 33 32" fill="none" xmlns="http://www.w3.org/2000/svg">
<path d="M31.68 0H1.32C0.589875 0 0 0.572 0 1.28V30.72C0 31.428 0.589875 32 1.32 32H31.68C32.4101 32 33 31.428 33 30.72V1.28C33 0.572 32.4101 0 31.68 0ZM9.78862 27.268H4.89225V11.996H9.78862V27.268ZM7.3425 9.908C6.7812 9.908 6.2325 9.7466 5.76579 9.4442C5.29909 9.14181 4.93533 8.71201 4.72053 8.20914C4.50573 7.70628 4.44953 7.15295 4.55903 6.61911C4.66854 6.08528 4.93883 5.59492 5.33573 5.21004C5.73263 4.82517 6.23832 4.56307 6.78883 4.45688C7.33935 4.35069 7.90998 4.40519 8.42856 4.61348C8.94713 4.82178 9.39037 5.17451 9.70221 5.62707C10.0141 6.07963 10.1805 6.61171 10.1805 7.156C10.1764 8.676 8.90588 9.908 7.3425 9.908ZM28.1201 27.268H23.2279V19.84C23.2279 18.068 23.1949 15.792 20.6828 15.792C18.1376 15.792 17.7458 17.72 17.7458 19.712V27.268H12.8576V11.996H17.5519V14.084H17.6179C18.2696 12.884 19.866 11.616 22.2503 11.616C27.2085 11.616 28.1201 14.78 28.1201 18.892V27.268V27.268Z" fill="#8ED8F8"/>
</svg>
