<svg width="18" height="18" viewBox="0 0 18 18" fill="none" xmlns="http://www.w3.org/2000/svg">
<path d="M8.87819 0C3.97537 0 0 3.97537 0 8.87819C0 13.781 3.97537 17.7564 8.87819 17.7564C13.781 17.7564 17.7564 13.781 17.7564 8.87819C17.7564 3.97537 13.781 0 8.87819 0ZM8.87819 16.2503C4.8077 16.2503 1.50612 12.9487 1.50612 8.87819C1.50612 4.8077 4.8077 1.50612 8.87819 1.50612C12.9487 1.50612 16.2503 4.8077 16.2503 8.87819C16.2503 12.9487 12.9487 16.2503 8.87819 16.2503Z" fill="#0095DA"/>
<path d="M12.3403 11.387L9.51433 9.34386V4.43906C9.51433 4.35186 9.44299 4.28052 9.35579 4.28052H8.40257C8.31538 4.28052 8.24403 4.35186 8.24403 4.43906V9.89677C8.24403 9.94829 8.26781 9.99585 8.30943 10.0256L11.5872 12.4156C11.6586 12.4671 11.7577 12.4512 11.8092 12.3819L12.376 11.609C12.4275 11.5357 12.4116 11.4366 12.3403 11.387Z" fill="#0095DA"/>
</svg>
