<svg width="16" height="20" viewBox="0 0 16 20" fill="none" xmlns="http://www.w3.org/2000/svg">
<path d="M8 19C8 19 1 13.6 1 8.2C1 3.7 4.5 1 8 1C11.5 1 15 3.7 15 8.2C15 13.6 8 19 8 19ZM8 10.9C8.69619 10.9 9.36387 10.6155 9.85616 10.1092C10.3484 9.60284 10.625 8.91608 10.625 8.2C10.625 7.48392 10.3484 6.79716 9.85616 6.29081C9.36387 5.78446 8.69619 5.5 8 5.5C7.30381 5.5 6.63613 5.78446 6.14384 6.29081C5.65156 6.79716 5.375 7.48392 5.375 8.2C5.375 8.91608 5.65156 9.60284 6.14384 10.1092C6.63613 10.6155 7.30381 10.9 8 10.9V10.9Z" stroke="#0095DA" stroke-width="1.5"/>
</svg>
