<svg width="20" height="20" viewBox="0 0 20 20" fill="none" xmlns="http://www.w3.org/2000/svg">
<path fill-rule="evenodd" clip-rule="evenodd" d="M4.34466 1.57753C4.27441 1.48742 4.18582 1.41327 4.08476 1.35997C3.9837 1.30667 3.87247 1.27545 3.75843 1.26838C3.6444 1.26131 3.53016 1.27854 3.42328 1.31893C3.31641 1.35933 3.21934 1.42197 3.13849 1.5027L1.90823 2.73296C1.33368 3.30751 1.12187 4.12177 1.37427 4.83583C2.4152 7.79407 4.10885 10.48 6.32957 12.6943C8.54391 14.915 11.2298 16.6086 14.188 17.6496C14.9021 17.9007 15.7164 17.6902 16.2909 17.1156L17.5212 15.8854C17.6018 15.8044 17.6644 15.7073 17.7047 15.6004C17.745 15.4934 17.7621 15.3792 17.7549 15.2651C17.7477 15.1511 17.7163 15.0399 17.6629 14.9389C17.6095 14.8379 17.5353 14.7494 17.4451 14.6792L14.703 12.5459C14.6065 12.4709 14.4943 12.4188 14.3748 12.3936C14.2552 12.3683 14.1315 12.3705 14.013 12.4L11.4104 13.0507C11.0628 13.1377 10.6985 13.1333 10.3531 13.0377C10.0077 12.9421 9.69293 12.7587 9.43947 12.5053L6.51981 9.58439C6.26644 9.33093 6.08303 9.01617 5.98745 8.67076C5.89188 8.32536 5.88739 7.96109 5.97444 7.61343L6.62508 5.01086C6.6546 4.89231 6.65682 4.76861 6.63155 4.64909C6.60628 4.52957 6.5542 4.41735 6.47923 4.32089L4.34466 1.57753ZM2.24179 0.607273C2.44988 0.399316 2.69981 0.237986 2.97501 0.133985C3.2502 0.0299844 3.54436 -0.01431 3.83797 0.00404101C4.13159 0.022392 4.41795 0.102969 4.67805 0.240425C4.93815 0.377882 5.16605 0.569077 5.34662 0.801324L7.47866 3.54342C7.87057 4.04567 8.00881 4.70139 7.85408 5.31906L7.20343 7.9229C7.1696 8.05801 7.17132 8.19958 7.20844 8.33383C7.24556 8.46808 7.3168 8.59042 7.41524 8.68896L10.3374 11.6086C10.436 11.7071 10.5583 11.7783 10.6926 11.8154C10.8268 11.8525 10.9684 11.8543 11.1035 11.8204L13.7061 11.1698C14.0113 11.0935 14.3299 11.0877 14.6378 11.1528C14.9456 11.2178 15.2346 11.352 15.483 11.5452L18.2251 13.6772C19.2106 14.4433 19.3019 15.9006 18.4191 16.7821L17.1889 18.0123C16.3099 18.8913 14.9947 19.2781 13.7682 18.8469C10.6309 17.7426 7.78249 15.9462 5.43414 13.591C3.07842 11.2428 1.28161 8.39431 0.176979 5.25691C-0.254247 4.03045 0.132588 2.71521 1.01153 1.835L2.24179 0.606004V0.607273Z" fill="#0095DA"/>
</svg>
