<svg width="135" height="135" viewBox="0 0 135 135" fill="none" xmlns="http://www.w3.org/2000/svg">
<path d="M132.364 21.6293H120.761C120.755 20.1783 119.578 19.0037 118.125 19.0037C116.673 19.0037 115.495 20.1783 115.489 21.6293H103.887C102.431 21.6293 101.25 22.81 101.25 24.266C101.25 25.722 102.431 26.9028 103.887 26.9028H115.489V30.0668H93.7258C93.6918 30.0283 93.6588 29.989 93.6222 29.9524C88.2548 24.5853 81.1185 21.6293 73.5279 21.6293H61.4718C53.8812 21.6293 46.7449 24.5853 41.3776 29.9524C41.3409 29.989 41.3082 30.0283 41.274 30.0668H22.1485H19.5118V26.9028H31.1133C32.5696 26.9028 33.7501 25.722 33.7501 24.266C33.7501 22.81 32.5696 21.6293 31.1133 21.6293H19.5112C19.5052 20.1783 18.3276 19.0037 16.875 19.0037C15.4225 19.0037 14.2449 20.1783 14.2388 21.6293H2.63672C1.18046 21.6293 0 22.81 0 24.266C0 25.722 1.18046 26.9028 2.63672 26.9028H14.2383V30.0668H11.6016C10.1453 30.0668 8.96486 31.2476 8.96486 32.7036V37.977C8.96486 42.3387 12.5134 45.8872 16.875 45.8872C21.2367 45.8872 24.7852 42.3387 24.7852 37.977V35.3403H40.6055V44.2213C40.6055 47.5135 42.7479 50.3127 45.7113 51.3033L33.9481 60.6233C33.3169 61.1232 32.9488 61.8844 32.9488 62.69V68.0357C32.9488 69.4917 34.1292 70.6724 35.5855 70.6724C37.0418 70.6724 38.2222 69.4917 38.2222 68.0357V63.9648L50.4231 54.2978L52.86 58.7539C53.3225 59.5997 54.2097 60.1255 55.1734 60.1255H64.8634V65.9271C62.3883 66.9622 60.6446 69.4083 60.6446 72.2544C60.6446 76.0347 63.7201 79.1099 67.5001 79.1099C71.2801 79.1099 74.3556 76.0347 74.3556 72.2544C74.3556 69.4081 72.6119 66.9622 70.1369 65.9271V60.1255H79.8268C80.7905 60.1255 81.6778 59.5997 82.1403 58.7539L84.5202 54.402L96.2299 63.9427V68.0357C96.2299 69.4917 97.4103 70.6724 98.8666 70.6724C100.323 70.6724 101.503 69.4917 101.503 68.0357V62.69C101.503 61.8971 101.147 61.1464 100.532 60.6457L89.1305 51.356C92.1759 50.4139 94.3944 47.572 94.3944 44.2213V35.3403H110.215V37.977C110.215 42.3387 113.763 45.8872 118.125 45.8872C122.487 45.8872 126.035 42.3387 126.035 37.977V32.7036C126.035 31.2476 124.855 30.0668 123.398 30.0668H121.816H120.762V26.9028H132.363C133.82 26.9028 135 25.722 135 24.266C135 22.8098 133.82 21.6293 132.364 21.6293ZM19.5118 37.977C19.5118 39.4309 18.3289 40.6137 16.875 40.6137C15.4211 40.6137 14.2383 39.4309 14.2383 37.977V35.3403H16.875H19.5118V37.977ZM67.5001 73.8365C66.6276 73.8365 65.9181 73.1269 65.9181 72.2544C65.9181 71.3819 66.6276 70.6724 67.5001 70.6724C68.3726 70.6724 69.0822 71.3819 69.0822 72.2544C69.0822 73.1267 68.3726 73.8365 67.5001 73.8365ZM78.2635 54.852H56.7365L55.006 51.688H79.9937L78.2635 54.852ZM89.1213 44.2208C89.1213 45.4302 88.1372 46.414 86.9278 46.414H48.0725C46.863 46.414 45.879 45.4302 45.879 44.2208V32.9432C50.1513 29.0398 55.6475 26.9028 61.4721 26.9028H73.5282C79.3527 26.9028 84.849 29.0398 89.1213 32.9432V44.2208ZM120.762 35.3403V37.977C120.762 39.4309 119.579 40.6137 118.125 40.6137C116.671 40.6137 115.489 39.4309 115.489 37.977V35.3403H120.762Z" fill="#005677"/>
<path d="M79.0962 35.4738C77.6399 35.4738 76.4595 36.6545 76.4595 38.1105V38.1448C76.4595 39.601 77.6399 40.7815 79.0962 40.7815C80.5524 40.7815 81.7329 39.6008 81.7329 38.1448V38.1105C81.7329 36.6547 80.5524 35.4738 79.0962 35.4738Z" fill="#005677"/>
<path d="M67.5001 35.4738C66.0439 35.4738 64.8634 36.6545 64.8634 38.1105V38.1448C64.8634 39.601 66.0439 40.7815 67.5001 40.7815C68.9564 40.7815 70.1368 39.6008 70.1368 38.1448V38.1105C70.1368 36.6547 68.9564 35.4738 67.5001 35.4738Z" fill="#005677"/>
<path d="M55.9041 35.4738C54.4478 35.4738 53.2674 36.6545 53.2674 38.1105V38.1448C53.2674 39.601 54.4478 40.7815 55.9041 40.7815C57.3604 40.7815 58.5408 39.6008 58.5408 38.1448V38.1105C58.5408 36.6547 57.3604 35.4738 55.9041 35.4738Z" fill="#005677"/>
<path d="M35.5852 74.3667C34.129 74.3667 32.9485 75.5474 32.9485 77.0034V77.1788C32.9485 78.6348 34.129 79.8155 35.5852 79.8155C37.0415 79.8155 38.2219 78.635 38.2219 77.1788V77.0034C38.2219 75.5477 37.0415 74.3667 35.5852 74.3667Z" fill="#005677"/>
<path d="M98.8666 74.2786C97.4103 74.2786 96.2299 75.4593 96.2299 76.9153V77.0036C96.2299 78.4596 97.4103 79.6403 98.8666 79.6403C100.323 79.6403 101.503 78.4596 101.503 77.0036V76.9153C101.503 75.459 100.323 74.2786 98.8666 74.2786Z" fill="#005677"/>
<path d="M81.5816 79.8764C80.5519 78.847 78.8823 78.847 77.8527 79.8764C75.0876 82.6418 71.4109 84.1648 67.5004 84.1648C63.5899 84.1648 59.9132 82.6421 57.1481 79.8764C56.1182 78.8473 54.4489 78.8473 53.4192 79.8764C52.3896 80.906 52.3893 82.5756 53.4192 83.6055C57.1805 87.3668 62.1813 89.4382 67.5007 89.4382C72.82 89.4382 77.8203 87.3665 81.5816 83.6055C82.6112 82.5761 82.6112 80.9063 81.5816 79.8764Z" fill="#005677"/>
<path d="M90.9788 89.2745C89.9489 88.2452 88.2796 88.2452 87.25 89.2745C76.3598 100.165 58.6405 100.165 47.75 89.2745C46.7204 88.2449 45.0511 88.2449 44.0214 89.2745C42.9918 90.3042 42.9918 91.9738 44.0214 93.0037C50.4946 99.4768 58.9972 102.713 67.5001 102.713C76.003 102.713 84.5057 99.4768 90.9788 93.0037C92.0085 91.9738 92.0087 90.3045 90.9788 89.2745Z" fill="#005677"/>
<path d="M100.377 98.6717C99.3468 97.6423 97.6772 97.6423 96.6475 98.6717C80.5756 114.744 54.4246 114.744 38.3527 98.6717C37.3231 97.6423 35.6535 97.6423 34.6236 98.6717C33.594 99.7013 33.594 101.371 34.6236 102.401C43.6879 111.465 55.594 115.997 67.5001 115.997C79.4063 115.997 91.3124 111.465 100.377 102.401C101.406 101.371 101.406 99.7016 100.377 98.6717Z" fill="#005677"/>
</svg>
