<svg width="84" height="88" viewBox="0 0 84 88" fill="none" xmlns="http://www.w3.org/2000/svg">
<path d="M77.2167 47.0756C72.8171 41.9427 66.511 38.7164 59.6183 38.2764V4.39959C59.6183 3.51967 59.0317 2.93306 58.1518 2.93306H40.5534C41.4334 2.93306 42.02 2.34645 42.02 1.46653C42.02 0.586612 41.4334 0 40.5534 0H20.022C19.1421 0 18.5555 0.586612 18.5555 1.46653C18.5555 2.34645 19.1421 2.93306 20.022 2.93306H2.42368C1.54376 2.93306 0.957153 3.51967 0.957153 4.39959V77.726C0.957153 78.606 1.54376 79.1926 2.42368 79.1926H39.0869C39.0869 79.1926 39.0869 79.1926 39.2336 79.1926C48.1794 89.7516 63.8713 90.9248 74.2836 82.1256C84.696 73.3265 86.0158 57.4879 77.2167 47.0756ZM3.89021 76.2595V5.86612H56.6853V38.2764C49.206 38.7164 42.3133 42.5293 37.9137 48.5421C37.767 48.5421 37.6204 48.5421 37.6204 48.3955H15.6224C14.7425 48.3955 14.1559 48.9821 14.1559 49.862C14.1559 50.7419 14.7425 51.3285 15.6224 51.3285H36.1539C34.6873 54.1149 33.8074 57.048 33.3674 60.1277H15.6224C14.7425 60.1277 14.1559 60.7143 14.1559 61.5942C14.1559 62.4741 14.7425 63.0608 15.6224 63.0608H33.2208C33.2208 64.0873 33.2208 64.9672 33.3674 65.9938H15.6224C14.7425 65.9938 14.1559 66.5804 14.1559 67.4603C14.1559 68.3403 14.7425 68.9269 15.6224 68.9269H33.9541C34.5407 71.5666 35.5672 74.0597 37.0338 76.2595H3.89021ZM58.1518 85.0587C45.9796 85.0587 36.1539 75.2329 36.1539 63.0608C36.1539 50.8886 45.9796 41.0628 58.1518 41.0628C70.324 41.0628 80.1497 50.8886 80.1497 63.0608C80.1497 75.2329 70.324 85.0587 58.1518 85.0587Z" fill="#AEAEAE"/>
<path d="M66.9511 61.5942H59.6185V45.4624C59.6185 44.5825 59.0319 43.9958 58.152 43.9958C57.272 43.9958 56.6854 44.5825 56.6854 45.4624V63.0607C56.6854 63.9406 57.272 64.5273 58.152 64.5273H66.9511C67.831 64.5273 68.4177 63.9406 68.4177 63.0607C68.4177 62.1808 67.831 61.5942 66.9511 61.5942Z" fill="#AEAEAE"/>
<path d="M9.75655 13.1987H8.29002C7.4101 13.1987 6.82349 13.7853 6.82349 14.6653C6.82349 15.5452 7.4101 16.1318 8.29002 16.1318H9.75655C10.6365 16.1318 11.2231 15.5452 11.2231 14.6653C11.2231 13.7853 10.6365 13.1987 9.75655 13.1987Z" fill="#AEAEAE"/>
<path d="M49.3528 13.1987H15.6227C14.7427 13.1987 14.1561 13.7853 14.1561 14.6653C14.1561 15.5452 14.7427 16.1318 15.6227 16.1318H49.3528C50.2327 16.1318 50.8193 15.5452 50.8193 14.6653C50.8193 13.7853 50.2327 13.1987 49.3528 13.1987Z" fill="#AEAEAE"/>
<path d="M34.6875 19.0649H15.6227C14.7427 19.0649 14.1561 19.6516 14.1561 20.5315C14.1561 21.4114 14.7427 21.998 15.6227 21.998H34.6875C35.5675 21.998 36.1541 21.4114 36.1541 20.5315C36.1541 19.6516 35.5675 19.0649 34.6875 19.0649Z" fill="#AEAEAE"/>
<path d="M9.75655 24.931H8.29002C7.4101 24.931 6.82349 25.5176 6.82349 26.3976C6.82349 27.2775 7.4101 27.8641 8.29002 27.8641H9.75655C10.6365 27.8641 11.2231 27.2775 11.2231 26.3976C11.2231 25.5176 10.6365 24.931 9.75655 24.931Z" fill="#AEAEAE"/>
<path d="M30.5812 24.931H15.9159C15.036 24.931 14.4493 25.5176 14.4493 26.3976C14.4493 27.2775 15.036 27.8641 15.9159 27.8641H30.5812C31.4611 27.8641 32.0477 27.2775 32.0477 26.3976C32.0477 25.5176 31.4611 24.931 30.5812 24.931Z" fill="#AEAEAE"/>
<path d="M50.8193 30.6505H15.6227C14.7427 30.6505 14.1561 31.2371 14.1561 32.117C14.1561 32.997 14.7427 33.5836 15.6227 33.5836H50.8193C51.6993 33.5836 52.2859 32.997 52.2859 32.117C52.2859 31.2371 51.6993 30.6505 50.8193 30.6505Z" fill="#AEAEAE"/>
<path d="M9.75655 36.6632H8.29002C7.4101 36.6632 6.82349 37.2498 6.82349 38.1297C6.82349 39.0097 7.4101 39.5963 8.29002 39.5963H9.75655C10.6365 39.5963 11.2231 39.0097 11.2231 38.1297C11.2231 37.2498 10.6365 36.6632 9.75655 36.6632Z" fill="#AEAEAE"/>
<path d="M43.4867 36.6632H15.6227C14.7427 36.6632 14.1561 37.2498 14.1561 38.1297C14.1561 39.0097 14.7427 39.5963 15.6227 39.5963H43.4867C44.3666 39.5963 44.9532 39.0097 44.9532 38.1297C44.9532 37.2498 44.3666 36.6632 43.4867 36.6632Z" fill="#AEAEAE"/>
<path d="M31.7545 42.5293H15.6227C14.7427 42.5293 14.1561 43.1159 14.1561 43.9958C14.1561 44.8757 14.7427 45.4624 15.6227 45.4624H31.7545C32.6344 45.4624 33.221 44.8757 33.221 43.9958C33.221 43.1159 32.6344 42.5293 31.7545 42.5293Z" fill="#AEAEAE"/>
<path d="M9.75655 48.3955H8.29002C7.4101 48.3955 6.82349 48.9821 6.82349 49.862C6.82349 50.742 7.4101 51.3286 8.29002 51.3286H9.75655C10.6365 51.3286 11.2231 50.742 11.2231 49.862C11.2231 48.9821 10.6365 48.3955 9.75655 48.3955Z" fill="#AEAEAE"/>
<path d="M30.288 54.2616H15.6227C14.7427 54.2616 14.1561 54.8482 14.1561 55.7281C14.1561 56.608 14.7427 57.1947 15.6227 57.1947H30.288C31.1679 57.1947 31.7545 56.608 31.7545 55.7281C31.7545 54.8482 31.1679 54.2616 30.288 54.2616Z" fill="#AEAEAE"/>
<path d="M9.75655 60.1277H8.29002C7.4101 60.1277 6.82349 60.7143 6.82349 61.5942C6.82349 62.4741 7.4101 63.0607 8.29002 63.0607H9.75655C10.6365 63.0607 11.2231 62.4741 11.2231 61.5942C11.2231 60.7143 10.6365 60.1277 9.75655 60.1277Z" fill="#AEAEAE"/>
</svg>
