<svg width="61" height="88" viewBox="0 0 61 88" fill="none" xmlns="http://www.w3.org/2000/svg">
<path d="M47.175 70.4H9.47503V73.3333H47.175V80.6667C47.175 83.0967 45.2275 85.0667 42.825 85.0667H8.02502C5.62256 85.0667 3.67502 83.0967 3.67502 80.6667V14.6667H41.375V11.7333H3.67502V7.33333C3.67502 4.90325 5.62256 2.93333 8.02502 2.93333H42.825C45.2275 2.93333 47.175 4.90325 47.175 7.33333V22H50.075V7.33333C50.0703 3.28533 46.827 0.00476667 42.825 0H8.02502C4.02302 0.00476667 0.779737 3.28533 0.775024 7.33333V80.6667C0.779737 84.7147 4.02302 87.9952 8.02502 88H42.825C46.827 87.9952 50.0703 84.7147 50.075 80.6667V64.5333H47.175V70.4Z" fill="#AEAEAE"/>
<path d="M26.875 77.7333H23.975V80.6666H26.875V77.7333Z" fill="#AEAEAE"/>
<path d="M16.725 5.8667H13.825V8.80003H16.725V5.8667Z" fill="#AEAEAE"/>
<path d="M22.525 5.8667H19.625V8.80003H22.525V5.8667Z" fill="#AEAEAE"/>
<path d="M6.57501 19.0666V24.9333H9.47501V20.5333H13.825V17.6H8.02501C7.22425 17.6 6.57501 18.2567 6.57501 19.0666Z" fill="#AEAEAE"/>
<path d="M58.775 39.6H55.3313C54.9287 38.0037 54.2996 36.4747 53.4637 35.0607L55.9026 32.582C56.4666 32.0096 56.4666 31.0834 55.9026 30.5111L51.8136 26.3751C51.2477 25.8045 50.332 25.8045 49.7662 26.3751L47.32 28.8391C45.9199 27.993 44.4057 27.3566 42.825 26.95V23.4667C42.825 22.6567 42.1758 22 41.375 22H35.575C34.7743 22 34.125 22.6567 34.125 23.4667V26.95C32.5469 27.3574 31.0353 27.9935 29.6373 28.8391L27.1868 26.3721C26.6209 25.8016 25.7052 25.8016 25.1394 26.3721L21.0504 30.5081C20.4863 31.0805 20.4863 32.0067 21.0504 32.5791L23.4893 35.0577C22.6521 36.4725 22.0221 38.0024 21.6188 39.6H18.175C17.3743 39.6 16.725 40.2567 16.725 41.0667V46.9333C16.725 47.7433 17.3743 48.4 18.175 48.4H21.6188C22.0208 49.9988 22.6499 51.5304 23.4864 52.9467L21.0475 55.4253C20.4834 55.9977 20.4834 56.9239 21.0475 57.4963L25.1365 61.6323C25.7024 62.2028 26.618 62.2028 27.1839 61.6323L29.6344 59.1653C31.0335 60.0096 32.546 60.6443 34.125 61.05V64.5333C34.125 65.3433 34.7743 66 35.575 66H41.375C42.1758 66 42.825 65.3433 42.825 64.5333V61.05C44.4057 60.6434 45.9199 60.007 47.32 59.1609L49.7705 61.6279C50.3364 62.1984 51.2521 62.1984 51.8179 61.6279L55.9069 57.4919C56.471 56.9195 56.471 55.9933 55.9069 55.4209L53.4637 52.9467C54.3002 51.5304 54.9293 49.9988 55.3313 48.4H58.775C59.5758 48.4 60.225 47.7433 60.225 46.9333V41.0667C60.225 40.2567 59.5758 39.6 58.775 39.6ZM57.325 45.4667H54.164C53.4628 45.4667 52.8621 45.9743 52.7372 46.6723C52.3758 48.6959 51.5841 50.616 50.4172 52.2999C50.017 52.8821 50.0859 53.6707 50.5811 54.1728L52.83 56.4505L50.7841 58.52L48.5322 56.254C48.0358 55.7531 47.2562 55.6835 46.6806 56.0883C45.0158 57.2686 43.1176 58.0694 41.1169 58.4349C40.4302 58.5605 39.9292 59.1633 39.925 59.8693V63.0667H37.025V59.8693C37.025 59.16 36.5232 58.5524 35.8331 58.4261C33.8325 58.0606 31.9343 57.2598 30.2695 56.0795C29.6938 55.6747 28.9143 55.7443 28.4178 56.2452L26.166 58.52L24.12 56.4505L26.3603 54.1728C26.8555 53.6707 26.9243 52.8821 26.5241 52.2999C25.3571 50.616 24.5656 48.6959 24.2041 46.6723C24.08 45.9776 23.484 45.4709 22.786 45.4667H19.625V42.5333H22.786C23.4873 42.5333 24.088 42.0257 24.2128 41.3277C24.5742 39.3041 25.3659 37.384 26.5328 35.7001C26.933 35.1179 26.8642 34.3293 26.369 33.8272L24.12 31.5495L26.166 29.48L28.4178 31.746C28.9143 32.2469 29.6938 32.3165 30.2695 31.9117C31.9343 30.7312 33.8325 29.9306 35.8331 29.5651C36.5199 29.4395 37.0209 28.8367 37.025 28.1307V24.9333H39.925V28.1307C39.925 28.84 40.4269 29.4475 41.1169 29.5739C43.1176 29.9394 45.0158 30.7402 46.6806 31.9205C47.2562 32.3253 48.0358 32.2557 48.5322 31.7548L50.7841 29.48L52.83 31.5495L50.5898 33.8272C50.0946 34.3293 50.0257 35.1179 50.4259 35.7001C51.5928 37.384 52.3845 39.3041 52.7459 41.3277C52.8701 42.0224 53.466 42.5291 54.164 42.5333H57.325V45.4667Z" fill="#AEAEAE"/>
<path d="M38.475 35.2C33.6701 35.2 29.775 39.1398 29.775 44C29.775 48.8601 33.6701 52.8 38.475 52.8C43.28 52.8 47.175 48.8601 47.175 44C47.1703 39.1418 43.278 35.2047 38.475 35.2ZM38.475 49.8666C35.2718 49.8666 32.675 47.24 32.675 44C32.675 40.7599 35.2718 38.1333 38.475 38.1333C41.6783 38.1333 44.275 40.7599 44.275 44C44.275 47.24 41.6783 49.8666 38.475 49.8666Z" fill="#AEAEAE"/>
</svg>
