<svg width="81" height="90" viewBox="0 0 81 90" fill="none" xmlns="http://www.w3.org/2000/svg">
<path d="M16.9062 34.7188C18.5286 34.7188 19.8438 33.4036 19.8438 31.7812C19.8438 30.1589 18.5286 28.8438 16.9062 28.8438C15.2839 28.8438 13.9688 30.1589 13.9688 31.7812C13.9688 33.4036 15.2839 34.7188 16.9062 34.7188Z" fill="#AEAEAE"/>
<path d="M78.5938 65.5625H71.25V14.1562C71.25 13.7667 71.0953 13.3931 70.8198 13.1177C70.5444 12.8422 70.1708 12.6875 69.7812 12.6875H62.4375V8.28125C62.4353 6.33424 61.6609 4.4676 60.2841 3.09085C58.9074 1.7141 57.0408 0.939687 55.0938 0.9375H53.625C53.2355 0.9375 52.8619 1.09224 52.5864 1.36769C52.311 1.64313 52.1562 2.01671 52.1562 2.40625V12.6875H33.0625C32.673 12.6875 32.2994 12.8422 32.0239 13.1177C31.7485 13.3931 31.5938 13.7667 31.5938 14.1562V18.5625H11.0312C10.6417 18.5625 10.2681 18.7172 9.99269 18.9927C9.71724 19.2681 9.5625 19.6417 9.5625 20.0312C9.56301 20.2243 9.52537 20.4155 9.45173 20.5939C9.3781 20.7723 9.26993 20.9345 9.13345 21.0709C8.99696 21.2074 8.83484 21.3156 8.65642 21.3892C8.47799 21.4629 8.28677 21.5005 8.09375 21.5C7.70421 21.5 7.33063 21.6547 7.05519 21.9302C6.77974 22.2056 6.625 22.5792 6.625 22.9688V40.5938C6.625 40.9833 6.77974 41.3569 7.05519 41.6323C7.33063 41.9078 7.70421 42.0625 8.09375 42.0625C8.28679 42.0619 8.47803 42.0996 8.65648 42.1732C8.83492 42.2468 8.99706 42.3549 9.13356 42.4914C9.27005 42.6279 9.37822 42.7901 9.45183 42.9685C9.52545 43.147 9.56306 43.3382 9.5625 43.5312C9.5625 43.9208 9.71724 44.2944 9.99269 44.5698C10.2681 44.8453 10.6417 45 11.0312 45H31.5938V47.9375H3.6875V15.625H28.6562V12.6875H2.21875C1.82921 12.6875 1.45563 12.8422 1.18019 13.1177C0.904743 13.3931 0.75 13.7667 0.75 14.1562V67.0312C0.75 67.4208 0.904743 67.7944 1.18019 68.0698C1.45563 68.3453 1.82921 68.5 2.21875 68.5H3.71082C2.74656 69.6319 2.21753 71.0705 2.21875 72.5574V72.8767C2.21479 74.0417 2.53735 75.1845 3.14985 76.1756C3.76234 77.1666 4.64028 77.9662 5.68408 78.4836L22.8092 87.0463C25.4617 88.3686 28.3844 89.0588 31.3483 89.0625H58.0312V86.125H31.3483C28.8405 86.122 26.3674 85.5382 24.123 84.4194L6.99769 75.8568C6.44302 75.5818 5.97649 75.1569 5.65101 74.6303C5.32553 74.1036 5.15414 73.4963 5.15625 72.8772V72.5574C5.15612 71.9992 5.2963 71.4498 5.56389 70.9599C5.83149 70.47 6.21793 70.0551 6.6877 69.7535C7.15747 69.4519 7.6955 69.2732 8.25237 69.2338C8.80923 69.1944 9.36707 69.2956 9.87461 69.5281L26.5756 77.1779C26.7675 77.2663 26.9762 77.3122 27.1875 77.3125H41.875C42.2645 77.3125 42.6381 77.1578 42.9136 76.8823C43.189 76.6069 43.3438 76.2333 43.3438 75.8438C43.3438 75.4542 43.189 75.0806 42.9136 74.8052C42.6381 74.5297 42.2645 74.375 41.875 74.375H30.125C29.3459 74.375 28.5988 74.0655 28.0479 73.5146C27.497 72.9637 27.1875 72.2166 27.1875 71.4375C27.1875 70.6584 27.497 69.9113 28.0479 69.3604C28.5988 68.8095 29.3459 68.5 30.125 68.5H41.3854C41.6518 68.5 41.9132 68.4275 42.1416 68.2903L42.2773 68.209C44.9562 66.6016 47.9973 65.6961 51.1191 65.5762C54.241 65.4563 57.3426 66.1259 60.1369 67.5231L60.9688 67.9389V87.5938C60.9688 87.9833 61.1235 88.3569 61.3989 88.6323C61.6744 88.9078 62.048 89.0625 62.4375 89.0625H78.5938C78.9833 89.0625 79.3569 88.9078 79.6323 88.6323C79.9078 88.3569 80.0625 87.9833 80.0625 87.5938V67.0312C80.0625 66.6417 79.9078 66.2681 79.6323 65.9927C79.3569 65.7172 78.9833 65.5625 78.5938 65.5625ZM59.5 43.5312C59.4986 44.6994 59.034 45.8194 58.2079 46.6454C57.3819 47.4715 56.2619 47.9361 55.0938 47.9375H40.4062V45H53.8765C55.8462 44.9989 57.7825 44.492 59.5 43.5278V43.5312ZM40.4062 41.0772V22.4925C42.29 23.3911 43.8588 24.8372 44.9074 26.6417C45.8092 28.2043 46.2831 29.9771 46.2812 31.7812C46.2812 31.9579 46.2765 32.1345 46.2666 32.3137C46.1782 34.169 45.586 35.9653 44.5535 37.5093C43.5209 39.0533 42.0872 40.2868 40.4062 41.0772ZM68.3125 50.875V53.8125H40.4062V50.875H68.3125ZM40.4062 56.75H68.3125V59.6875H40.4062V56.75ZM68.3125 15.625V47.9375H60.9647C61.9221 46.6682 62.4392 45.1211 62.4375 43.5312V15.625H68.3125ZM55.0938 3.875C56.2619 3.87636 57.3819 4.34103 58.2079 5.16706C59.034 5.9931 59.4986 7.11306 59.5 8.28125V37.6597C58.2306 36.7026 56.6836 36.1857 55.0938 36.1875V3.875ZM55.0938 39.125C55.7407 39.1249 56.3797 39.2675 56.9653 39.5427C57.5508 39.8179 58.0684 40.2188 58.4812 40.7169C57.1059 41.595 55.5083 42.0618 53.8765 42.0625H44.3311C45.7733 40.897 46.9527 39.4396 47.7918 37.786C48.631 36.1324 49.1109 34.3201 49.2 32.4679C49.2125 32.2426 49.2184 32.0115 49.2184 31.7812C49.2218 29.808 48.7812 27.8593 47.929 26.0795C47.0769 24.2998 45.8352 22.7346 44.2959 21.5H52.1562V37.6562C52.1562 38.0458 52.311 38.4194 52.5864 38.6948C52.8619 38.9703 53.2355 39.125 53.625 39.125H55.0938ZM52.1562 18.5625H40.4062V15.625H52.1562V18.5625ZM37.4688 15.625V47.9375H34.5312V15.625H37.4688ZM31.5938 22.4925V41.074C29.835 40.2406 28.349 38.925 27.3084 37.2804C26.2678 35.6357 25.7154 33.7295 25.7154 31.7833C25.7154 29.8371 26.2678 27.9308 27.3084 26.2862C28.349 24.6415 29.835 23.326 31.5938 22.4925ZM11.2088 40.4125C10.7444 39.9479 10.1819 39.5931 9.5625 39.3743V24.188C10.1825 23.9684 10.7456 23.6131 11.2107 23.1481C11.6757 22.683 12.0311 22.12 12.2507 21.5H27.7036C26.1683 22.7372 24.9293 24.3023 24.0776 26.0807C23.2258 27.859 22.7829 29.8054 22.7812 31.7771C22.7796 33.7489 23.2192 35.696 24.068 37.4758C24.9168 39.2555 26.1531 40.8227 27.6863 42.0625H12.2505C12.0307 41.4417 11.6747 40.878 11.2088 40.4125ZM3.6875 56.75H31.5938V59.6875H3.6875V56.75ZM31.5938 50.875V53.8125H3.6875V50.875H31.5938ZM24.4545 72.9764L14.6816 68.5H25.0404C24.6519 69.1705 24.4002 69.9113 24.2996 70.6796C24.199 71.4479 24.2517 72.2285 24.4545 72.9764ZM3.6875 65.5625V62.625H31.5938V65.5625H3.6875ZM34.5312 65.5625V50.875H37.4688V65.5625H34.5312ZM51.8318 62.625C48.0186 62.6253 44.274 63.6391 40.9814 65.5625H40.4062V62.625H68.3125V65.5625H62.7841L61.4507 64.8957C58.4628 63.4062 55.1704 62.6289 51.8318 62.625ZM77.125 86.125H63.9062V68.5H77.125V86.125Z" fill="#AEAEAE"/>
<path d="M69.7812 83.1875C71.4036 83.1875 72.7188 81.8723 72.7188 80.25C72.7188 78.6277 71.4036 77.3125 69.7812 77.3125C68.1589 77.3125 66.8438 78.6277 66.8438 80.25C66.8438 81.8723 68.1589 83.1875 69.7812 83.1875Z" fill="#AEAEAE"/>
</svg>
