<svg width="89" height="89" viewBox="0 0 89 89" fill="none" xmlns="http://www.w3.org/2000/svg">
<path d="M37.1875 35.7188C28.2795 35.7188 21.0312 42.967 21.0312 51.875C21.0312 60.783 28.2795 68.0312 37.1875 68.0312C46.0955 68.0312 53.3438 60.783 53.3438 51.875C53.3438 42.967 46.0955 35.7188 37.1875 35.7188ZM37.1875 65.0938C29.8996 65.0938 23.9688 59.1644 23.9688 51.875C23.9688 44.5856 29.8996 38.6562 37.1875 38.6562C44.4754 38.6562 50.4062 44.5856 50.4062 51.875C50.4062 59.1644 44.4754 65.0938 37.1875 65.0938Z" fill="#AEAEAE"/>
<path d="M68.0312 56.2812V63.4311L78.7575 56.2812H81.25C85.2993 56.2812 88.5938 52.9868 88.5938 48.9375V31.3125C88.5938 27.2632 85.2993 23.9688 81.25 23.9688H73.3922C72.179 20.551 68.9228 18.0938 65.0938 18.0938C61.2647 18.0938 58.0085 20.551 56.7953 23.9688H48.9375C48.4352 23.9688 47.9432 24.0202 47.4688 24.1171V13.6875C47.4688 9.63816 44.1743 6.34375 40.125 6.34375H32.2672C31.054 2.92597 27.7978 0.46875 23.9688 0.46875C20.1397 0.46875 16.8835 2.92597 15.6703 6.34375H7.8125C3.76316 6.34375 0.46875 9.63816 0.46875 13.6875V31.3125C0.46875 35.3618 3.76316 38.6562 7.8125 38.6562H19.6036C16.8247 42.3428 15.1562 46.9121 15.1562 51.875C15.1562 56.293 16.4752 60.4026 18.7238 63.8556L16.625 65.9544L15.1562 64.4857L2.42072 77.2227C1.162 78.4799 0.46875 80.1543 0.46875 81.933C0.46875 85.6063 3.45766 88.5938 7.131 88.5938C8.91112 88.5938 10.584 87.9005 11.8413 86.6432L24.5768 73.9062L23.1081 72.4375L25.2069 70.3387C28.6599 72.5873 32.7695 73.9062 37.1875 73.9062C47.8271 73.9062 56.7278 66.326 58.7752 56.2812H68.0312ZM73.9062 26.9062H81.25C83.6793 26.9062 85.6562 28.8832 85.6562 31.3125V48.9375C85.6562 51.3668 83.6793 53.3438 81.25 53.3438H77.8675L70.9688 57.9439V53.3438H59.1438C59.1762 52.8561 59.2188 52.3714 59.2188 51.875C59.2188 51.3786 59.1762 50.8939 59.1438 50.4062H79.7812V47.4688C79.7812 41.2897 75.939 35.9993 70.5222 33.8343C72.5785 32.2187 73.9062 29.7174 73.9062 26.9062ZM69.3884 47.4688L68.491 36.224C73.3173 37.6854 76.8438 42.171 76.8438 47.4688H69.3884ZM65.5035 35.7393L66.4406 47.4688H63.7469L64.6825 35.7437C64.8206 35.7393 64.9557 35.7188 65.0938 35.7188C65.2318 35.7188 65.3669 35.7349 65.5035 35.7393ZM60.7991 47.4688H58.7737C58.242 44.8573 57.2271 42.4251 55.8583 40.2366C57.3637 38.3155 59.4023 36.9349 61.6951 36.2416L60.7991 47.4688ZM65.0938 21.0312C68.3338 21.0312 70.9688 23.6662 70.9688 26.9062C70.9688 30.1463 68.3338 32.7812 65.0938 32.7812C61.8537 32.7812 59.2188 30.1463 59.2188 26.9062C59.2188 23.6662 61.8537 21.0312 65.0938 21.0312ZM56.2812 26.9062C56.2812 29.716 57.6075 32.2158 59.6608 33.8314C57.5341 34.6789 55.6174 36.0125 54.0796 37.7574C51.5768 34.7685 48.2912 32.4684 44.5489 31.1362C44.6443 28.7892 46.5684 26.9062 48.9375 26.9062H56.2812ZM32.7812 9.28125H40.125C42.5543 9.28125 44.5312 11.2582 44.5312 13.6875V25.4757C43.0126 26.6257 41.9683 28.3383 41.6951 30.3123C40.7066 30.1052 39.6888 29.9877 38.6562 29.9201V29.8438C38.6562 23.6647 34.814 18.3743 29.3972 16.2093C31.4535 14.5937 32.7812 12.0924 32.7812 9.28125ZM12.2188 29.8438C12.2188 24.546 15.7452 20.0604 20.573 18.599L19.6741 29.8438H12.2188ZM23.559 18.1143C23.6956 18.1099 23.8307 18.0938 23.9688 18.0938C24.1068 18.0938 24.2419 18.1099 24.3785 18.1143L25.3156 29.8438H22.6219L23.559 18.1143ZM27.3645 18.599C32.1923 20.0604 35.7188 24.546 35.7188 29.8438H28.2634L27.3645 18.599ZM23.9688 3.40625C27.2088 3.40625 29.8438 6.04119 29.8438 9.28125C29.8438 12.5213 27.2088 15.1562 23.9688 15.1562C20.7287 15.1562 18.0938 12.5213 18.0938 9.28125C18.0938 6.04119 20.7287 3.40625 23.9688 3.40625ZM3.40625 31.3125V13.6875C3.40625 11.2582 5.38319 9.28125 7.8125 9.28125H15.1562C15.1562 12.0924 16.484 14.5937 18.5403 16.2093C13.1235 18.3743 9.28125 23.6647 9.28125 29.8438V32.7812H26.2438C24.8045 33.6096 23.4723 34.5981 22.2606 35.7188H7.8125C5.38319 35.7188 3.40625 33.7418 3.40625 31.3125ZM9.76447 84.5664C9.06094 85.2685 8.12534 85.6562 7.131 85.6562C5.07769 85.6562 3.40625 83.9848 3.40625 81.933C3.40625 80.9386 3.794 80.0045 4.49753 79.2995L15.1562 68.6393L20.4232 73.9062L9.76447 84.5664ZM21.0312 70.3607L18.7018 68.0312L20.5069 66.2262C21.2251 67.0589 22.0036 67.8374 22.8363 68.5556L21.0312 70.3607ZM37.1875 70.9688C26.6595 70.9688 18.0938 62.403 18.0938 51.875C18.0938 41.347 26.6595 32.7812 37.1875 32.7812C47.7155 32.7812 56.2812 41.347 56.2812 51.875C56.2812 62.403 47.7155 70.9688 37.1875 70.9688Z" fill="#AEAEAE"/>
<path d="M79.7812 29.8438H82.7188V32.7812H79.7812V29.8438Z" fill="#AEAEAE"/>
<path d="M79.7812 35.7188H82.7188V38.6562H79.7812V35.7188Z" fill="#AEAEAE"/>
<path d="M6.34375 12.2188H9.28125V15.1562H6.34375V12.2188Z" fill="#AEAEAE"/>
<path d="M6.34375 18.0938H9.28125V21.0312H6.34375V18.0938Z" fill="#AEAEAE"/>
</svg>
