<svg width="111" height="75" viewBox="0 0 111 75" fill="none" xmlns="http://www.w3.org/2000/svg">
<path d="M65.4052 15.1453C65.4098 13.335 64.8771 11.564 63.8746 10.0566C62.8721 8.54913 61.4449 7.37303 59.7737 6.67714C58.1025 5.98124 56.2623 5.79684 54.4862 6.14729C52.7101 6.49774 51.078 7.36726 49.7963 8.6458C48.5147 9.92434 47.6412 11.5544 47.2864 13.3296C46.9316 15.1049 47.1115 16.9454 47.8034 18.6184C48.4952 20.2913 49.6678 21.7213 51.1728 22.7275C52.6778 23.7336 54.4474 24.2706 56.2578 24.2705C58.68 24.2707 61.0035 23.31 62.7183 21.5993C64.4332 19.8886 65.3995 17.5675 65.4052 15.1453ZM56.2578 21.5752C54.9871 21.5707 53.7462 21.1899 52.6918 20.4807C51.6374 19.7715 50.8168 18.7658 50.3336 17.5906C49.8504 16.4153 49.7262 15.1232 49.9768 13.8775C50.2274 12.6318 50.8416 11.4882 51.7416 10.5912C52.6417 9.69427 53.7874 9.08411 55.034 8.83781C56.2806 8.59151 57.5722 8.72011 58.7458 9.20737C59.9193 9.69464 60.9222 10.5187 61.6277 11.5755C62.3333 12.6324 62.7099 13.8746 62.7099 15.1453C62.705 16.8529 62.0229 18.4889 60.8133 19.6943C59.6038 20.8997 57.9654 21.5761 56.2578 21.5752Z" fill="#AEAEAE"/>
<path d="M26.5171 37.7471C25.2684 37.75 24.0487 38.1229 23.0119 38.8188C21.9751 39.5147 21.1678 40.5022 20.692 41.6566C20.2162 42.8111 20.0932 44.0807 20.3387 45.305C20.5841 46.5293 21.1868 47.6534 22.0708 48.5353C22.9548 49.4171 24.0803 50.0172 25.3052 50.2597C26.5301 50.5022 27.7994 50.3763 28.9527 49.8977C30.106 49.4192 31.0916 48.6095 31.785 47.5711C32.4784 46.5326 32.8484 45.312 32.8484 44.0633C32.8445 42.3867 32.1758 40.7801 30.9888 39.596C29.8019 38.4119 28.1937 37.7469 26.5171 37.7471ZM26.5171 47.6845C25.8015 47.6815 25.1029 47.4667 24.5094 47.067C23.9158 46.6673 23.454 46.1008 23.1822 45.4388C22.9104 44.7769 22.8408 44.0493 22.9822 43.3478C23.1236 42.6464 23.4696 42.0025 23.9766 41.4976C24.4836 40.9926 25.1289 40.6492 25.8309 40.5107C26.5329 40.3722 27.2603 40.4447 27.9211 40.7192C28.5819 40.9938 29.1466 41.4579 29.5438 42.0531C29.9411 42.6482 30.1531 43.3478 30.1531 44.0633C30.1502 45.0255 29.7658 45.9472 29.0841 46.6263C28.4025 47.3053 27.4793 47.6862 26.5171 47.6854V47.6845Z" fill="#AEAEAE"/>
<path d="M66.515 49.4901C65.4449 49.4925 64.3995 49.812 63.5109 50.4083C62.6224 51.0045 61.9304 51.8508 61.5226 52.8401C61.1147 53.8294 61.0093 54.9174 61.2195 55.9667C61.4297 57.0159 61.9462 57.9793 62.7038 58.7351C63.4613 59.4909 64.4258 60.0053 65.4755 60.2132C66.5252 60.421 67.613 60.3131 68.6014 59.9031C69.5898 59.493 70.4345 58.7992 71.0287 57.9093C71.623 57.0194 71.9402 55.9733 71.9402 54.9032C71.937 53.4664 71.364 52.0896 70.3469 51.0748C69.3298 50.06 67.9517 49.4901 66.515 49.4901ZM66.515 57.621C65.978 57.6186 65.4537 57.4572 65.0084 57.1571C64.563 56.857 64.2166 56.4317 64.0127 55.9349C63.8089 55.4381 63.7568 54.892 63.863 54.3656C63.9693 53.8392 64.2291 53.3561 64.6096 52.9772C64.9902 52.5983 65.4745 52.3407 66.0013 52.2368C66.5282 52.1329 67.074 52.1874 67.5699 52.3935C68.0658 52.5995 68.4896 52.9479 68.7877 53.3946C69.0858 53.8412 69.2449 54.3662 69.2449 54.9032C69.2424 55.6253 68.9536 56.317 68.4418 56.8264C67.93 57.3359 67.2371 57.6215 66.515 57.6208V57.621Z" fill="#AEAEAE"/>
<path d="M95.3344 31.0571C96.4045 31.0547 97.4499 30.7352 98.3384 30.139C99.227 29.5427 99.9189 28.6965 100.327 27.7071C100.735 26.7178 100.84 25.6298 100.63 24.5806C100.42 23.5313 99.9031 22.568 99.1456 21.8121C98.3881 21.0563 97.4236 20.542 96.3738 20.3341C95.3241 20.1262 94.2364 20.2341 93.248 20.6442C92.2596 21.0542 91.4149 21.748 90.8206 22.6379C90.2264 23.5279 89.9092 24.5739 89.9092 25.644C89.9124 27.0808 90.4854 28.4576 91.5025 29.4724C92.5195 30.4872 93.8976 31.0571 95.3344 31.0571ZM95.3344 22.9263C95.8714 22.9287 96.3956 23.0901 96.841 23.3902C97.2863 23.6903 97.6328 24.1155 97.8366 24.6124C98.0405 25.1092 98.0926 25.6552 97.9863 26.1816C97.8801 26.708 97.6203 27.1912 97.2397 27.57C96.8592 27.9489 96.3749 28.2066 95.848 28.3104C95.3212 28.4143 94.7753 28.3598 94.2794 28.1537C93.7835 27.9477 93.3598 27.5993 93.0617 27.1527C92.7636 26.706 92.6045 26.181 92.6045 25.644C92.6069 24.9219 92.8957 24.2302 93.4075 23.7207C93.9193 23.2112 94.6122 22.9255 95.3344 22.9263Z" fill="#AEAEAE"/>
<path d="M99.263 36.2752L102.817 31.5378C104.187 29.7502 104.867 27.5301 104.736 25.2824C104.416 20.3778 100.399 16.5354 95.5904 16.5354C90.782 16.5354 86.7655 20.3778 86.4448 25.2813C86.3753 26.3946 86.5139 27.5112 86.8534 28.5738L64.6251 28.9815L68.0556 24.4069C70.2451 21.5514 71.335 18.004 71.1264 14.4117C70.8904 10.7372 69.3284 7.27325 66.7306 4.6637C65.3922 3.32425 63.803 2.26168 62.0537 1.53671C60.3044 0.811744 58.4295 0.438599 56.5359 0.438599C54.6424 0.438599 52.7674 0.811744 51.0182 1.53671C49.2689 2.26168 47.6797 3.32425 46.3412 4.6637C43.7439 7.27261 42.182 10.7357 41.9456 14.4095C41.7165 17.835 42.8032 21.38 45.0152 24.4046L47.9827 28.3598L16.3954 28.568C16.1159 28.5698 15.8438 28.6586 15.6169 28.8219C15.39 28.9853 15.2195 29.2151 15.1291 29.4797L0.31856 72.7769C0.2492 72.9798 0.229246 73.1963 0.260356 73.4084C0.291467 73.6206 0.372743 73.8222 0.497434 73.9967C0.622126 74.1711 0.786634 74.3132 0.977293 74.4113C1.16795 74.5094 1.37926 74.5605 1.59367 74.5606H109.406C109.618 74.5605 109.826 74.5108 110.015 74.4153C110.203 74.3199 110.367 74.1814 110.492 74.011C110.617 73.8406 110.701 73.6432 110.735 73.4347C110.77 73.2262 110.755 73.0124 110.692 72.8106L99.263 36.2752ZM89.1331 25.458C89.3328 22.3971 91.8022 19.2307 95.5893 19.2307C99.3765 19.2307 101.846 22.3977 102.045 25.4616C102.134 27.0653 101.643 28.6472 100.661 29.9188L95.5893 36.6795L90.5269 29.9323C89.553 28.6499 89.0602 27.0665 89.1343 25.458H89.1331ZM88.1581 31.2446C88.2255 31.3426 88.2929 31.4401 88.3625 31.5366L94.5126 39.7349C94.6381 39.9023 94.8008 40.0381 94.988 40.1317C95.1751 40.2252 95.3815 40.2739 95.5907 40.2739C95.7999 40.2739 96.0062 40.2252 96.1934 40.1317C96.3805 40.0381 96.5433 39.9023 96.6688 39.7349L97.2705 38.933L98.8026 43.8311L77.9072 43.8358L76.3931 31.4618L88.1581 31.2446ZM47.182 22.8014C45.3532 20.3008 44.4489 17.3845 44.636 14.5881C44.8295 11.565 46.1139 8.71499 48.2507 6.56772C49.3387 5.47936 50.6305 4.61601 52.0522 4.02698C53.474 3.43795 54.9979 3.13478 56.5368 3.13478C58.0758 3.13478 59.5997 3.43795 61.0214 4.02698C62.4432 4.61601 63.735 5.47936 64.823 6.56772C66.9609 8.71592 68.2459 11.5674 68.4392 14.5919C68.604 17.5399 67.7033 20.4489 65.9016 22.7881L56.5369 35.2699L47.182 22.8014ZM3.47904 71.8652L10.4801 51.3977L18.4511 51.3735L25.7522 61.1049C25.8777 61.2723 26.0405 61.4081 26.2276 61.5017C26.4148 61.5952 26.6211 61.644 26.8303 61.644C27.0395 61.644 27.2459 61.5952 27.433 61.5017C27.6201 61.4081 27.7829 61.2723 27.9085 61.1049L33.7258 53.35L33.7975 71.8652H3.47904ZM33.269 49.4686L26.8301 58.0504L20.4011 49.4818C19.1372 47.7523 18.5117 45.7423 18.6406 43.8174C18.8935 39.9384 22.0262 35.9262 26.8301 35.9262C31.634 35.9262 34.7667 39.9384 35.02 43.8212C35.1326 45.8527 34.5111 47.857 33.269 49.4686ZM54.5092 57.7373C54.3819 57.8628 54.2809 58.0122 54.2119 58.1771C54.143 58.3419 54.1075 58.5188 54.1076 58.6975L54.1147 71.8652H36.4928L36.4081 49.5415C37.3858 47.7356 37.8371 45.6916 37.7109 43.642C37.3301 37.8041 32.5514 33.2309 26.8317 33.2309C21.112 33.2309 16.3334 37.8041 15.9527 43.6397C15.8503 45.369 16.1615 47.0978 16.8604 48.6829L11.4046 48.6995L17.3709 31.257L49.9974 31.0429L55.4604 38.3243C55.5859 38.4917 55.7487 38.6276 55.9358 38.7211C56.1229 38.8147 56.3293 38.8634 56.5385 38.8634C56.7477 38.8634 56.9541 38.8147 57.1412 38.7211C57.3283 38.6276 57.4911 38.4917 57.6166 38.3243L62.5751 31.7139L73.6841 31.5101L75.3767 45.3461C75.4167 45.6727 75.5748 45.9734 75.8213 46.1915C76.0677 46.4096 76.3854 46.53 76.7145 46.53L99.6458 46.5248L103.027 57.3346L75.6507 57.3811C75.8902 56.4548 75.9802 55.4962 75.9171 54.5416C75.5973 49.6366 71.5799 45.7944 66.7715 45.7944C61.9631 45.7944 57.9457 49.6366 57.6258 54.5393C57.5649 55.497 57.6592 56.4583 57.9053 57.3858L55.4754 57.3496C55.2964 57.3448 55.1183 57.3767 54.9521 57.4434C54.786 57.5101 54.6352 57.6101 54.5092 57.7373ZM71.8434 59.1777L66.7713 65.9385L61.709 59.1914C60.7347 57.9094 60.2414 56.326 60.3151 54.7174C60.5148 51.6562 62.9844 48.4902 66.7713 48.4902C70.5582 48.4902 73.0278 51.6571 73.2277 54.7213C73.3155 56.3248 72.8243 57.9064 71.8434 59.178V59.1777ZM56.8101 71.8652L56.8035 60.0649L59.075 60.0986C59.221 60.3351 59.3771 60.5672 59.5431 60.7949L65.6931 68.9932C65.8187 69.1605 65.9814 69.2964 66.1686 69.39C66.3557 69.4835 66.562 69.5322 66.7713 69.5322C66.9805 69.5322 67.1868 69.4835 67.374 69.39C67.5611 69.2964 67.7239 69.1605 67.8494 68.9932L73.9985 60.7974C74.1742 60.5638 74.3384 60.3242 74.4911 60.0786L103.87 60.0288L107.572 71.8652H56.8101Z" fill="#AEAEAE"/>
</svg>
