<svg width="91" height="92" viewBox="0 0 91 92" fill="none" xmlns="http://www.w3.org/2000/svg">
<path d="M90.5469 59.2188H61.7459L63.9431 45.8972C65.8903 45.6211 67.5817 44.5753 68.7166 43.0581C68.7282 43.0581 68.7384 43.0625 68.75 43.0625C77.5632 43.0625 84.7344 35.8142 84.7344 26.9062V20.9931C86.4883 19.6506 87.6406 17.5444 87.6406 15.1562V14.9183L86.1134 10.2859L83.3568 11.2156L84.73 15.378C84.6138 17.7045 82.7058 19.5625 80.375 19.5625C78.0442 19.5625 76.1362 17.7045 76.0214 15.378L77.3946 11.2156L74.6381 10.2859L73.1094 14.9183V15.1562C73.1094 17.5459 74.2617 19.6521 76.0156 20.9931V27.0693C76.0156 31.029 72.8289 34.25 68.9128 34.25C68.8503 34.25 68.7863 34.2617 68.7238 34.2632C67.3971 32.4831 65.3075 31.3125 62.9375 31.3125C62.1732 31.3125 61.4204 31.4535 60.6866 31.7061L60.239 31.1025C61.8709 29.7542 62.9375 27.7302 62.9375 25.4375V23.9688H64.3906C66.7941 23.9688 68.75 21.9918 68.75 19.5625V13.6875C68.75 11.2582 66.7941 9.28125 64.3906 9.28125H62.9375V7.8125C62.9375 3.76316 59.6781 0.46875 55.6719 0.46875H35.3281C31.3219 0.46875 28.0625 3.76316 28.0625 7.8125V9.28125H26.6094C24.2059 9.28125 22.25 11.2582 22.25 13.6875V19.5625C22.25 21.9918 24.2059 23.9688 26.6094 23.9688H28.0625V25.4375C28.0625 27.7302 29.1291 29.7542 30.7624 31.1025L30.3148 31.7061C29.5796 31.4535 28.8268 31.3125 28.0625 31.3125C24.0562 31.3125 20.7969 34.6069 20.7969 38.6562C20.7969 38.7091 20.8114 38.7591 20.8129 38.8105C18.7407 41.6745 16.4375 45.8634 16.4375 50.4062C16.4375 53.0118 17.475 56.1535 18.9005 59.2188H0.453125V62.1562H20.3842C20.9422 63.1756 21.522 64.1655 22.1003 65.0938H16.4375V91.5312H74.5625V65.0938H36.0358C34.9489 64.8397 33.8241 64.8397 32.7372 65.0952C32.496 64.825 32.2373 64.5694 31.9336 64.3653C31.4512 64.0407 30.8118 63.2284 30.1216 62.1562H90.5469V59.2188ZM64.3906 12.2188C65.1913 12.2188 65.8438 12.8782 65.8438 13.6875V19.5625C65.8438 20.3718 65.1913 21.0312 64.3906 21.0312H62.9375V12.2188H64.3906ZM26.6094 21.0312C25.8087 21.0312 25.1562 20.3718 25.1562 19.5625V13.6875C25.1562 12.8782 25.8087 12.2188 26.6094 12.2188H28.0625V21.0312H26.6094ZM78.9219 27.0707V22.3517C79.3912 22.4486 79.878 22.5 80.375 22.5C80.872 22.5 81.3588 22.4486 81.8281 22.3517V26.9062C81.8281 33.7462 76.6594 39.3892 70.0636 40.0574C70.1508 39.6036 70.2031 39.1365 70.2031 38.6562C70.2031 38.129 70.1421 37.6164 70.0375 37.1199C75.029 36.5515 78.9219 32.2642 78.9219 27.0707ZM67.2969 38.6562C67.2969 40.5979 66.0414 42.2297 64.3528 42.8172C64.3703 42.5088 64.3906 42.2018 64.3906 41.8948C64.3906 39.2496 63.6975 36.6264 62.4318 34.3176C62.6004 34.2955 62.7675 34.25 62.9375 34.25C65.341 34.25 67.2969 36.2269 67.2969 38.6562ZM49.8594 3.40625L47.6797 6.34375H43.3203L41.1406 3.40625H49.8594ZM30.9688 7.8125C30.9688 5.38319 32.9247 3.40625 35.3281 3.40625H37.5078L41.8672 9.28125H49.1328L53.4922 3.40625H55.6719C58.0753 3.40625 60.0312 5.38319 60.0312 7.8125V25.4375C60.0312 27.8668 58.0753 29.8438 55.6719 29.8438H35.3281C32.9247 29.8438 30.9688 27.8668 30.9688 25.4375V7.8125ZM55.6719 32.7812H57.8516L58.9806 34.3043C58.9981 34.3278 59.0126 34.3528 59.0286 34.3763L59.0359 34.3866C60.614 36.5486 61.4844 39.2085 61.4844 41.8948C61.4844 42.5881 61.4263 43.2872 61.3144 43.9746L58.8005 59.2188H32.1995L29.6856 43.9746C29.5738 43.2872 29.5156 42.5881 29.5156 41.8948C29.5156 39.5639 30.1724 37.2536 31.3756 35.2708L32.031 34.2882L33.1484 32.7812H35.3281H55.6719ZM28.0625 34.25C28.2325 34.25 28.3996 34.2955 28.5696 34.3176C27.3025 36.6264 26.6094 39.2482 26.6094 41.8948C26.6094 42.1974 26.6297 42.5014 26.6472 42.804C24.9397 42.2062 23.7031 40.5818 23.7031 38.6562C23.7031 36.2269 25.659 34.25 28.0625 34.25ZM37.3131 68.9536L39.2545 72.8796L41.1406 71.9264V73.9062H44.0469V70.9688H41.5591L40.106 68.0312H71.6562V88.5938H19.3438V68.0312H24.0533C24.9572 69.3091 25.7564 70.3196 26.3449 70.9688H23.7031V73.9062H26.6094V71.2537C26.8041 71.4534 26.9756 71.615 27.0947 71.6958C27.1194 71.7119 27.147 71.7237 27.1717 71.7398C27.0395 73.7785 27.7123 75.8612 29.2497 77.4166L29.4168 77.5855L33.7384 79.7695L35.039 77.1419L31.1548 75.1797C29.6086 73.4524 29.658 70.7734 31.3059 69.1078C32.9537 67.4408 35.6042 67.3909 37.3131 68.9536ZM29.2512 67.0296C28.7891 67.4966 28.4301 68.0239 28.1177 68.5717C25.8247 65.7753 19.3438 56.1961 19.3438 50.4062C19.3438 47.5304 20.5222 44.7442 21.8838 42.4706C22.4229 43.3607 23.1262 44.1362 23.9778 44.7237C22.8501 46.774 22.25 48.6863 22.25 50.4062C22.25 54.0252 27.054 63.9437 29.9196 66.4788C29.6929 66.658 29.459 66.8195 29.2512 67.0296ZM25.1562 50.4062C25.1562 49.1314 25.6997 47.5672 26.6806 45.859C26.8026 45.8825 26.9334 45.8796 27.0569 45.8972L29.2541 59.2188H28.4374C26.7213 55.9229 25.1562 52.0175 25.1562 50.4062Z" fill="#AEAEAE"/>
<path d="M29.5156 82.7188H32.4219V85.6562H29.5156V82.7188Z" fill="#AEAEAE"/>
<path d="M23.7031 82.7188H26.6094V85.6562H23.7031V82.7188Z" fill="#AEAEAE"/>
<path d="M64.3906 82.7188H67.2969V85.6562H64.3906V82.7188Z" fill="#AEAEAE"/>
<path d="M58.5781 82.7188H61.4844V85.6562H58.5781V82.7188Z" fill="#AEAEAE"/>
<path d="M46.9531 82.7188H49.8594V85.6562H46.9531V82.7188Z" fill="#AEAEAE"/>
<path d="M41.1406 82.7188H44.0469V85.6562H41.1406V82.7188Z" fill="#AEAEAE"/>
<path d="M52.7656 82.7188H55.6719V85.6562H52.7656V82.7188Z" fill="#AEAEAE"/>
<path d="M35.3281 82.7188H38.2344V85.6562H35.3281V82.7188Z" fill="#AEAEAE"/>
<path d="M23.7031 76.8438H26.6094V79.7812H23.7031V76.8438Z" fill="#AEAEAE"/>
<path d="M46.9531 76.8438H49.8594V79.7812H46.9531V76.8438Z" fill="#AEAEAE"/>
<path d="M35.3281 76.8438H38.2344V79.7812H35.3281V76.8438Z" fill="#AEAEAE"/>
<path d="M41.1406 76.8438H44.0469V79.7812H41.1406V76.8438Z" fill="#AEAEAE"/>
<path d="M64.3906 76.8438H67.2969V79.7812H64.3906V76.8438Z" fill="#AEAEAE"/>
<path d="M58.5781 76.8438H61.4844V79.7812H58.5781V76.8438Z" fill="#AEAEAE"/>
<path d="M52.7656 76.8438H55.6719V79.7812H52.7656V76.8438Z" fill="#AEAEAE"/>
<path d="M46.9531 70.9688H49.8594V73.9062H46.9531V70.9688Z" fill="#AEAEAE"/>
<path d="M52.7656 70.9688H55.6719V73.9062H52.7656V70.9688Z" fill="#AEAEAE"/>
<path d="M64.3906 70.9688H67.2969V73.9062H64.3906V70.9688Z" fill="#AEAEAE"/>
<path d="M58.5781 70.9688H61.4844V73.9062H58.5781V70.9688Z" fill="#AEAEAE"/>
<path d="M52.7656 18.0938C55.1691 18.0938 57.125 16.1168 57.125 13.6875C57.125 11.2582 55.1691 9.28125 52.7656 9.28125C50.3622 9.28125 48.4062 11.2582 48.4062 13.6875C48.4062 16.1168 50.3622 18.0938 52.7656 18.0938ZM52.7656 12.2188C53.5663 12.2188 54.2188 12.8782 54.2188 13.6875C54.2188 14.4968 53.5663 15.1562 52.7656 15.1562C51.965 15.1562 51.3125 14.4968 51.3125 13.6875C51.3125 12.8782 51.965 12.2188 52.7656 12.2188Z" fill="#AEAEAE"/>
<path d="M38.2344 18.0938C40.6378 18.0938 42.5938 16.1168 42.5938 13.6875C42.5938 11.2582 40.6378 9.28125 38.2344 9.28125C35.8309 9.28125 33.875 11.2582 33.875 13.6875C33.875 16.1168 35.8309 18.0938 38.2344 18.0938ZM38.2344 12.2188C39.035 12.2188 39.6875 12.8782 39.6875 13.6875C39.6875 14.4968 39.035 15.1562 38.2344 15.1562C37.4337 15.1562 36.7812 14.4968 36.7812 13.6875C36.7812 12.8782 37.4337 12.2188 38.2344 12.2188Z" fill="#AEAEAE"/>
<path d="M51.2733 23.9688L39.6875 23.9291V21.0312H36.7812V23.9291C36.7812 25.5697 38.1036 26.9062 39.7267 26.9062H51.2718C52.8964 26.9062 54.2188 25.5697 54.2188 23.9291V21.0312H51.3125L51.2733 23.9688Z" fill="#AEAEAE"/>
<path d="M32.4219 46C32.4219 48.4293 34.3778 50.4062 36.7812 50.4062H54.2188C56.6222 50.4062 58.5781 48.4293 58.5781 46V40.125C58.5781 37.6957 56.6222 35.7188 54.2188 35.7188H36.7812C34.3778 35.7188 32.4219 37.6957 32.4219 40.125V46ZM35.3281 40.125C35.3281 39.3157 35.9806 38.6562 36.7812 38.6562H54.2188C55.0194 38.6562 55.6719 39.3157 55.6719 40.125V46C55.6719 46.8093 55.0194 47.4688 54.2188 47.4688H36.7812C35.9806 47.4688 35.3281 46.8093 35.3281 46V40.125Z" fill="#AEAEAE"/>
<path d="M41.1406 53.3438H44.0469V56.2812H41.1406V53.3438Z" fill="#AEAEAE"/>
<path d="M35.3281 53.3438H38.2344V56.2812H35.3281V53.3438Z" fill="#AEAEAE"/>
<path d="M52.7656 53.3438H55.6719V56.2812H52.7656V53.3438Z" fill="#AEAEAE"/>
<path d="M46.9531 53.3438H49.8594V56.2812H46.9531V53.3438Z" fill="#AEAEAE"/>
</svg>
