<svg width="92" height="91" viewBox="0 0 92 91" fill="none" xmlns="http://www.w3.org/2000/svg">
<path d="M82.7188 49.1764V20.6806C87.6934 19.9715 91.5312 15.7385 91.5312 10.625C91.5312 5.01739 86.9194 0.453125 81.25 0.453125C75.5806 0.453125 70.9688 5.01739 70.9688 10.625H0.46875V68.75H44.6062C45.3699 80.8923 55.5704 90.5469 68.0312 90.5469C80.9886 90.5469 91.5312 80.1163 91.5312 67.2969C91.5312 59.9746 88.0841 53.4413 82.7188 49.1764ZM81.25 3.35938C85.2993 3.35938 88.5938 6.61873 88.5938 10.625C88.5938 14.6313 85.2993 17.8906 81.25 17.8906C77.2007 17.8906 73.9062 14.6313 73.9062 10.625C73.9062 6.61873 77.2007 3.35938 81.25 3.35938ZM3.40625 13.5312H71.402C71.7531 14.6908 72.3112 15.7589 73.0279 16.7063L64.0451 25.5936C63.4693 25.3205 62.8348 25.1562 62.1562 25.1562C61.4777 25.1562 60.8432 25.3205 60.2689 25.5936L57.3094 22.6656C57.584 22.096 57.75 21.4682 57.75 20.7969C57.75 18.3934 55.7731 16.4375 53.3438 16.4375C50.9144 16.4375 48.9375 18.3934 48.9375 20.7969C48.9375 21.4682 49.1035 22.096 49.3796 22.6641L42.0138 29.9516C41.4381 29.6798 40.8036 29.5156 40.125 29.5156C37.6957 29.5156 35.7188 31.4715 35.7188 33.875C35.7188 36.2785 37.6957 38.2344 40.125 38.2344C42.5543 38.2344 44.5312 36.2785 44.5312 33.875C44.5312 33.2037 44.3653 32.5759 44.0892 32.0077L51.4549 24.7203C52.0307 24.992 52.6652 25.1562 53.3438 25.1562C54.0223 25.1562 54.6568 24.992 55.2311 24.7189L58.1906 27.6469C57.916 28.2165 57.75 28.8443 57.75 29.5156C57.75 31.9191 59.7269 33.875 62.1562 33.875C64.5856 33.875 66.5625 31.9191 66.5625 29.5156C66.5625 28.8443 66.3965 28.2165 66.1204 27.6484L75.1048 18.761C76.4487 19.7579 78.0437 20.4336 79.7812 20.6821V47.1943C76.3194 45.205 72.3141 44.0469 68.0312 44.0469C61.0106 44.0469 54.7156 47.1246 50.4062 51.9708V45.5H41.5938V62.9375H44.9601C44.778 63.8864 44.6678 64.8585 44.6062 65.8438H3.40625V13.5312ZM62.1562 28.0625C62.9655 28.0625 63.625 28.7135 63.625 29.5156C63.625 30.3178 62.9655 30.9688 62.1562 30.9688C61.347 30.9688 60.6875 30.3178 60.6875 29.5156C60.6875 28.7135 61.347 28.0625 62.1562 28.0625ZM51.875 20.7969C51.875 19.9947 52.5345 19.3438 53.3438 19.3438C54.153 19.3438 54.8125 19.9947 54.8125 20.7969C54.8125 21.599 54.153 22.25 53.3438 22.25C52.5345 22.25 51.875 21.599 51.875 20.7969ZM41.5938 33.875C41.5938 34.6771 40.9343 35.3281 40.125 35.3281C39.3157 35.3281 38.6562 34.6771 38.6562 33.875C38.6562 33.0729 39.3157 32.4219 40.125 32.4219C40.9343 32.4219 41.5938 33.0729 41.5938 33.875ZM68.0312 78.9219C61.5526 78.9219 56.2812 73.7066 56.2812 67.2969C56.2812 60.8871 61.5526 55.6719 68.0312 55.6719C74.5099 55.6719 79.7812 60.8871 79.7812 67.2969C79.7812 73.7066 74.5099 78.9219 68.0312 78.9219ZM47.4688 56.0657C46.7652 57.3212 46.1836 58.6479 45.7224 60.0312H44.5312V48.4062H47.4688V56.0657ZM66.5625 47.0272V52.8397C59.1512 53.5721 53.3438 59.7755 53.3438 67.2969C53.3438 69.4228 53.8196 71.4383 54.6524 73.2605L49.5573 76.1711C48.2325 73.4857 47.4688 70.4807 47.4688 67.2969C47.4688 56.5699 55.9097 47.777 66.5625 47.0272ZM68.0312 87.6406C60.9607 87.6406 54.7126 84.0906 51.0114 78.6966L56.127 75.7744C58.7972 79.4334 63.1315 81.8281 68.0312 81.8281C72.931 81.8281 77.2653 79.4334 79.9355 75.7744L85.0511 78.6966C81.3499 84.0906 75.1018 87.6406 68.0312 87.6406ZM86.5052 76.1711L81.4101 73.2605C82.2429 71.4383 82.7188 69.4228 82.7188 67.2969C82.7188 59.7755 76.9113 53.5707 69.5 52.8397V47.0272C80.1528 47.777 88.5938 56.5699 88.5938 67.2969C88.5938 70.4807 87.83 73.4857 86.5052 76.1711Z" fill="#AEAEAE"/>
<path d="M68.0312 58.5781C63.1712 58.5781 59.2188 62.4885 59.2188 67.2969C59.2188 72.1053 63.1712 76.0156 68.0312 76.0156C72.8913 76.0156 76.8438 72.1053 76.8438 67.2969C76.8438 62.4885 72.8913 58.5781 68.0312 58.5781ZM68.0312 73.1094C64.7912 73.1094 62.1562 70.5025 62.1562 67.2969C62.1562 64.0913 64.7912 61.4844 68.0312 61.4844C71.2713 61.4844 73.9062 64.0913 73.9062 67.2969C73.9062 70.5025 71.2713 73.1094 68.0312 73.1094Z" fill="#AEAEAE"/>
<path d="M6.34375 16.4375H9.28125V19.3438H6.34375V16.4375Z" fill="#AEAEAE"/>
<path d="M12.2188 16.4375H32.7812V19.3438H12.2188V16.4375Z" fill="#AEAEAE"/>
<path d="M6.34375 22.25H9.28125V25.1562H6.34375V22.25Z" fill="#AEAEAE"/>
<path d="M12.2188 22.25H32.7812V25.1562H12.2188V22.25Z" fill="#AEAEAE"/>
<path d="M6.34375 28.0625H9.28125V30.9688H6.34375V28.0625Z" fill="#AEAEAE"/>
<path d="M12.2188 28.0625H32.7812V30.9688H12.2188V28.0625Z" fill="#AEAEAE"/>
<path d="M6.34375 33.875H9.28125V36.7812H6.34375V33.875Z" fill="#AEAEAE"/>
<path d="M12.2188 33.875H32.7812V36.7812H12.2188V33.875Z" fill="#AEAEAE"/>
<path d="M6.34375 62.9375H15.1562V48.4062H6.34375V62.9375ZM9.28125 51.3125H12.2188V60.0312H9.28125V51.3125Z" fill="#AEAEAE"/>
<path d="M18.0938 62.9375H26.9062V51.3125H18.0938V62.9375ZM21.0312 54.2188H23.9688V60.0312H21.0312V54.2188Z" fill="#AEAEAE"/>
<path d="M29.8438 62.9375H38.6562V39.6875H29.8438V62.9375ZM32.7812 42.5938H35.7188V60.0312H32.7812V42.5938Z" fill="#AEAEAE"/>
</svg>
