<svg width="87" height="88" viewBox="0 0 87 88" fill="none" xmlns="http://www.w3.org/2000/svg">
<path d="M50.7144 0.0615439C31.2734 0.00715495 15.2766 15.5273 14.5202 35.1768L17.4182 35.297C18.1703 17.0602 33.1363 2.74235 51.1799 2.9964C69.2229 3.25045 83.7891 17.9841 84.0396 36.2352C84.2893 54.4855 70.1334 69.6228 52.1039 70.3829L52.2228 73.3141C71.9433 72.5169 87.4031 55.8982 86.992 35.9396C86.581 15.981 70.4504 0.0279086 50.7144 0.0615439Z" fill="#AEAEAE"/>
<path d="M79.6941 36.7025C79.7076 22.0075 68.9604 9.57318 54.5612 7.62305C40.1612 5.67221 26.5593 14.8081 22.7493 28.9893L25.5454 29.7601C28.8728 17.441 40.4449 9.30052 53.0209 10.4341C65.5962 11.5684 75.5637 21.6497 76.6844 34.3702C77.8051 47.0901 69.7571 58.7959 57.578 62.1608L58.3407 64.9898C70.9394 61.4939 79.6785 49.9169 79.6941 36.7025Z" fill="#AEAEAE"/>
<path d="M37.8674 17.1276L40.3777 15.662L41.8266 18.2004L39.3164 19.666L37.8674 17.1276Z" fill="#AEAEAE"/>
<path d="M59.6029 55.204L62.1124 53.7384L63.5614 56.2775L61.0512 57.7424L59.6029 55.204Z" fill="#AEAEAE"/>
<path d="M29.9122 26.2477L31.3612 23.7086L33.8707 25.1743L32.4217 27.7126L29.9122 26.2477Z" fill="#AEAEAE"/>
<path d="M67.5582 48.2322L69.0071 45.6938L71.5167 47.1595L70.0684 49.6979L67.5582 48.2322Z" fill="#AEAEAE"/>
<path d="M71.0002 35.2369H73.8982V38.1682H71.0002V35.2369Z" fill="#AEAEAE"/>
<path d="M67.5582 25.1743L70.0677 23.7086L71.5167 26.247L69.0064 27.7126L67.5582 25.1743Z" fill="#AEAEAE"/>
<path d="M59.6029 18.2004L61.0519 15.662L63.5614 17.1276L62.1124 19.666L59.6029 18.2004Z" fill="#AEAEAE"/>
<path d="M63.0527 28.0933L53.5763 33.4184C53.1624 33.0492 52.6827 32.7629 52.1634 32.5754V13.2523H49.2654V32.5754C47.0446 33.334 45.8036 35.7235 46.4467 38.0036C47.0899 40.2836 49.3907 41.6512 51.6731 41.1095C53.9555 40.5684 55.4151 38.3092 54.9892 35.9776L64.4578 30.6553L63.0527 28.0933ZM50.7144 38.1682C49.9142 38.1682 49.2654 37.5119 49.2654 36.7025C49.2654 35.8931 49.9142 35.2369 50.7144 35.2369C51.5146 35.2369 52.1634 35.8931 52.1634 36.7025C52.1634 37.5119 51.5146 38.1682 50.7144 38.1682Z" fill="#AEAEAE"/>
<path d="M13.1859 82.9539L16.8239 79.2705C18.3705 80.1608 20.0197 80.8535 21.7348 81.3344V86.5343C21.7348 87.3437 22.3835 87.9999 23.1837 87.9999H31.8776C32.6778 87.9999 33.3266 87.3437 33.3266 86.5343V81.3344C35.0409 80.8535 36.6894 80.1608 38.236 79.2705L41.8755 82.9539C42.4415 83.5264 43.3584 83.5264 43.9244 82.9539L50.0741 76.7336C50.6394 76.1618 50.6394 75.2336 50.0741 74.661L46.4326 70.9812C47.312 69.4175 47.9969 67.7494 48.4716 66.0154H53.6124C54.4126 66.0154 55.0614 65.3591 55.0614 64.5497V55.7559C55.0614 54.9465 54.4126 54.2902 53.6124 54.2902H48.4716C47.9962 52.5562 47.3106 50.8888 46.4312 49.3251L50.0727 45.6431C50.638 45.0706 50.638 44.1431 50.0727 43.5706L43.923 37.351C43.3485 36.8006 42.4493 36.8006 41.8741 37.351L38.236 41.0337C36.6894 40.1441 35.0409 39.4521 33.3266 38.9719V33.7713C33.3266 32.9619 32.6778 32.3057 31.8776 32.3057H23.1837C22.3835 32.3057 21.7348 32.9619 21.7348 33.7713V38.9719C20.0205 39.4521 18.372 40.1455 16.8253 41.0351L13.1859 37.3524C12.6199 36.7799 11.7029 36.7799 11.1369 37.3524L4.98866 43.572C4.42336 44.1446 4.42336 45.072 4.98866 45.6446L8.63023 49.3251C7.75079 50.8888 7.06521 52.5562 6.58976 54.2902H1.44898C0.648788 54.2902 0 54.9465 0 55.7559V64.5497C0 65.3591 0.648788 66.0154 1.44898 66.0154H6.58976C7.06521 67.7494 7.75079 69.4175 8.63023 70.9812L4.98866 74.6625C4.42336 75.235 4.42336 76.1632 4.98866 76.735L11.1384 82.9554C11.7136 83.5035 12.6114 83.5035 13.1859 82.9539ZM8.06209 75.6973L11.4815 72.2415C11.964 71.7541 12.0454 70.9927 11.6775 70.4123C10.4747 68.5223 9.61508 66.4304 9.13893 64.2348C8.99247 63.5628 8.40382 63.0841 7.7232 63.0841H2.89797V57.2215H7.7232C8.40382 57.2215 8.99318 56.7428 9.13893 56.07C9.61508 53.8745 10.4747 51.7833 11.6775 49.8933C12.0447 49.3137 11.9633 48.5529 11.4815 48.0656L8.06209 44.6097L12.1628 40.4619L15.5794 43.9213C16.0612 44.4086 16.8147 44.4902 17.3878 44.1174C19.2563 42.9008 21.3244 42.0313 23.495 41.5496C24.1601 41.4015 24.6327 40.8061 24.6327 40.1176V35.2369H30.4287V40.1176C30.4287 40.8061 30.9027 41.4022 31.5678 41.5496C33.7377 42.0313 35.8057 42.9008 37.6736 44.1174C38.2467 44.4895 38.9987 44.4072 39.4806 43.9198L42.8971 40.4604L46.9979 44.6083L43.5785 48.0641C43.0959 48.5522 43.0153 49.3137 43.3839 49.8933C44.5867 51.7833 45.4463 53.8759 45.9225 56.0715C46.0689 56.7435 46.6576 57.2222 47.3382 57.2215H52.1634V63.0841H47.3382C46.6576 63.0841 46.0682 63.5636 45.9225 64.2363C45.4463 66.4311 44.5867 68.523 43.3839 70.4123C43.0167 70.9927 43.0981 71.7534 43.5799 72.24L46.9993 75.6959L42.8986 79.8437L39.482 76.385C39.0002 75.8977 38.2467 75.8154 37.6736 76.1882C35.805 77.4048 33.737 78.2743 31.5663 78.7567C30.9013 78.9041 30.4287 79.5002 30.4287 80.188V85.0687H24.6327V80.188C24.6327 79.4995 24.1587 78.9034 23.4936 78.7567C21.3237 78.2743 19.2556 77.4048 17.3878 76.1882C16.8147 75.8168 16.0626 75.8991 15.5808 76.3865L12.1642 79.8452L8.06209 75.6973Z" fill="#AEAEAE"/>
<path d="M27.5307 74.8092C35.5333 74.8092 42.0205 68.2475 42.0205 60.1529C42.0205 52.0582 35.5333 45.4965 27.5307 45.4965C19.528 45.4965 13.0408 52.0582 13.0408 60.1529C13.0493 68.2439 19.5315 74.8007 27.5307 74.8092ZM27.5307 48.4277C33.9329 48.4277 39.1225 53.6777 39.1225 60.1529C39.1225 66.6287 33.9329 71.878 27.5307 71.878C21.1284 71.878 15.9388 66.6287 15.9388 60.1529C15.9459 53.6806 21.1319 48.4349 27.5307 48.4277Z" fill="#AEAEAE"/>
<path d="M27.5307 66.0153C30.7315 66.0153 33.3266 63.391 33.3266 60.1527C33.3266 56.9151 30.7315 54.2902 27.5307 54.2902C24.3299 54.2902 21.7348 56.9151 21.7348 60.1527C21.7348 63.391 24.3299 66.0153 27.5307 66.0153ZM27.5307 57.2214C29.1311 57.2214 30.4287 58.5339 30.4287 60.1527C30.4287 61.7715 29.1311 63.084 27.5307 63.084C25.9303 63.084 24.6327 61.7715 24.6327 60.1527C24.6327 58.5339 25.9303 57.2214 27.5307 57.2214Z" fill="#AEAEAE"/>
</svg>
