<svg width="91" height="92" viewBox="0 0 91 92" fill="none" xmlns="http://www.w3.org/2000/svg">
<path d="M41.1406 26.9063H45.5C47.8468 26.9063 49.9567 25.5888 51.0059 23.4665L51.1585 23.1566L48.5588 21.842L48.4062 22.1534C47.8526 23.2726 46.7395 23.9688 45.5 23.9688H41.1406V26.9063Z" fill="#AEAEAE"/>
<path d="M41.1406 82.7188H49.8594V85.6562H41.1406V82.7188Z" fill="#AEAEAE"/>
<path d="M41.1406 76.8438H49.8594V79.7812H41.1406V76.8438Z" fill="#AEAEAE"/>
<path d="M41.1406 70.9688H49.8594V73.9062H41.1406V70.9688Z" fill="#AEAEAE"/>
<path d="M87.6406 65.0938H80.9765L69.2469 53.238C77.8145 48.6599 85.0773 41.6437 89.9467 32.7842L90.7575 31.3125L89.9467 29.8408C83.3757 17.8867 72.1677 8.97281 59.1462 5.30094C56.9927 2.37519 53.5575 0.46875 49.6806 0.46875H41.3193C37.4424 0.46875 34.0072 2.37519 31.8537 5.30094C18.8322 8.97281 7.62425 17.8852 1.05321 29.8408L0.242371 31.3125L1.05321 32.7842C5.92264 41.6437 13.1854 48.6584 21.753 53.238L10.0234 65.0938H3.35932C1.75653 65.0938 0.453074 66.4112 0.453074 68.0312V88.5938C0.453074 90.2138 1.75653 91.5312 3.35932 91.5312H17.8906C19.4934 91.5312 20.7968 90.2138 20.7968 88.5938V68.0312C20.7968 66.4112 19.4934 65.0938 17.8906 65.0938H14.1328L24.5125 54.6025C30.5749 57.3828 37.1968 58.9705 44.0468 59.1688V65.0938H38.2343C36.6315 65.0938 35.3281 66.4112 35.3281 68.0312V88.5938C35.3281 90.2138 36.6315 91.5312 38.2343 91.5312H52.7656C54.3684 91.5312 55.6718 90.2138 55.6718 88.5938V68.0312C55.6718 66.4112 54.3684 65.0938 52.7656 65.0938H46.9531V59.1688C53.8031 58.9705 60.425 57.3828 66.4874 54.6025L76.8671 65.0938H73.1093C71.5065 65.0938 70.2031 66.4112 70.2031 68.0312V88.5938C70.2031 90.2138 71.5065 91.5312 73.1093 91.5312H87.6406C89.2434 91.5312 90.5468 90.2138 90.5468 88.5938V68.0312C90.5468 66.4112 89.2434 65.0938 87.6406 65.0938ZM17.8935 88.5938H3.35932V68.0312H17.8906L17.8935 88.5938ZM52.7685 88.5938H38.2343V68.0312H52.7656L52.7685 88.5938ZM87.4066 31.267L87.4299 31.3125L87.4052 31.358C81.8978 41.3764 73.1515 48.8978 62.9186 52.9384C69.1307 47.8168 73.1093 40.0281 73.1093 31.3125C73.1093 22.8172 69.3588 14.9521 62.9404 9.67781C73.2474 13.7683 81.9952 21.4234 87.4066 31.267ZM35.3281 23.9688C33.7253 23.9688 32.4218 22.6513 32.4218 21.0312C32.4218 19.4112 33.7253 18.0938 35.3281 18.0938V23.9688ZM29.8687 15.2928L30.4863 17.7912C29.8759 18.7209 29.5156 19.8342 29.5156 21.0312C29.5156 24.2713 32.1225 26.9062 35.3281 26.9062H35.4748C35.8948 28.9904 37.2084 30.7309 38.974 31.7678L38.5526 33.0427C32.0542 35.0226 27.426 40.7316 26.7154 47.4878C23.0332 43.1257 20.7968 37.4827 20.7968 31.3125C20.7968 23.8806 24.0082 16.9878 29.5214 12.2746C29.5214 12.3157 29.5156 12.3568 29.5156 12.3994C29.5156 13.3761 29.6347 14.3499 29.8687 15.2928ZM55.6718 18.0938C57.2746 18.0938 58.5781 19.4112 58.5781 21.0312C58.5781 22.6513 57.2746 23.9688 55.6718 23.9688V18.0938ZM55.5251 26.9062H55.6718C58.8774 26.9062 61.4843 24.2713 61.4843 21.0312C61.4843 19.8342 61.124 18.7209 60.5136 17.7912L61.1312 15.2943C61.3652 14.3499 61.4843 13.3761 61.4843 12.3994C61.4843 12.3568 61.4785 12.3157 61.4785 12.2731C66.9917 16.9863 70.2031 23.8792 70.2031 31.3125C70.2031 37.4827 67.9667 43.1257 64.2845 47.4878C63.5739 40.7331 58.9443 35.0226 52.4473 33.0427L52.0259 31.7678C53.7915 30.7309 55.1051 28.9904 55.5251 26.9062ZM42.5937 32.7812H48.4062C48.7012 32.7812 48.9816 32.7284 49.2679 32.6931L49.5353 33.5053L45.5 35.5454L41.4646 33.5053L41.732 32.6931C42.0183 32.7284 42.2987 32.7812 42.5937 32.7812ZM48.5181 37.305L51.4534 35.8216C52.0986 36.0096 52.7234 36.2357 53.3221 36.5104L52.0797 39.4655L48.5181 37.305ZM39.5465 35.8216L42.4818 37.305L38.9187 39.4655L37.6763 36.5104C38.2765 36.2357 38.9028 36.0096 39.5465 35.8216ZM35.1508 38.0129L37.5485 43.722L41.6404 41.2412L42.4891 43.1447L38.4988 55.2458C35.1537 54.2441 32.1065 52.5462 29.5156 50.3167V49.3003C29.5156 44.731 31.6894 40.5994 35.1508 38.0129ZM44.9855 41.5938L44.15 39.7182L45.5 38.9001L46.8499 39.7182L46.0144 41.5938H44.9855ZM49.3594 41.2412L53.4515 43.722L55.8491 38.0129C59.3105 40.5994 61.4843 44.731 61.4843 49.2988V50.3152C58.8934 52.5448 55.8462 54.2426 52.5011 55.2443L48.5108 43.1433L49.3594 41.2412ZM52.7656 25.4375C52.7656 27.8668 50.8097 29.8438 48.4062 29.8438H42.5937C40.1902 29.8438 38.2343 27.8668 38.2343 25.4375V16.4106C38.2343 15.356 38.7792 14.4028 39.6686 13.8755C40.9429 15.7012 42.9657 16.9628 45.327 17.2022L52.7656 17.9542V25.4375ZM41.3455 55.8994L45.0931 44.5312H45.9054L49.6544 55.8994C48.3016 56.1329 46.9182 56.2812 45.5 56.2812C44.0817 56.2812 42.6983 56.1329 41.3455 55.8994ZM41.3193 3.40625H49.6806C54.5863 3.40625 58.5781 7.44091 58.5781 12.3994C58.5781 13.1353 58.488 13.8696 58.3122 14.5805L58.0404 15.6777C57.3153 15.3487 56.5175 15.1562 55.6718 15.1562H54.2943L45.6162 14.2794C43.0645 14.0224 41.1406 11.8736 41.1406 9.28125H38.2343C38.2343 9.94072 38.3128 10.5826 38.461 11.1965C36.9018 12.0131 35.8352 13.4672 35.4734 15.1562H35.3281C34.4824 15.1562 33.6846 15.3487 32.958 15.6777L32.6863 14.579C32.5119 13.8696 32.4218 13.1353 32.4218 12.3994C32.4218 7.44091 36.4136 3.40625 41.3193 3.40625ZM3.59328 31.358L3.57003 31.3125L3.59473 31.267C9.00617 21.4219 17.7554 13.7668 28.0654 9.67634C21.6425 14.9506 17.8906 22.8158 17.8906 31.3125C17.8906 40.0281 21.8692 47.8168 28.0799 52.9384C17.847 48.8978 9.10062 41.3764 3.59328 31.358ZM73.1093 88.5938V68.0312H87.6406L87.6435 88.5938H73.1093Z" fill="#AEAEAE"/>
<path d="M6.26562 82.7188H14.9844V85.6562H6.26562V82.7188Z" fill="#AEAEAE"/>
<path d="M6.26562 76.8438H14.9844V79.7812H6.26562V76.8438Z" fill="#AEAEAE"/>
<path d="M6.26562 70.9688H14.9844V73.9062H6.26562V70.9688Z" fill="#AEAEAE"/>
<path d="M78.6967 80.4143L77.043 78.7428L74.9883 80.8196L79.1471 85.0232L85.9434 74.7214L83.5254 73.0911L78.6967 80.4143Z" fill="#AEAEAE"/>
</svg>
