<svg width="90" height="89" viewBox="0 0 90 89" fill="none" xmlns="http://www.w3.org/2000/svg">
<path d="M83.1875 8.8125H65.5625V11.75H83.1875C83.9662 11.7509 84.7129 12.0607 85.2636 12.6114C85.8143 13.1621 86.124 13.9087 86.125 14.6875V42.5938C86.124 43.3725 85.8143 44.1192 85.2636 44.6699C84.7129 45.2205 83.9662 45.5303 83.1875 45.5312H75.8437C75.4542 45.5312 75.0806 45.686 74.8051 45.9614C74.5297 46.2369 74.375 46.6105 74.375 47V49.9375H72.269L68.744 44.0625L72.269 38.1875H74.375V41.125C74.375 41.5145 74.5297 41.8881 74.8051 42.1636C75.0806 42.439 75.4542 42.5938 75.8437 42.5938H81.7187C82.1082 42.5938 82.4818 42.439 82.7573 42.1636C83.0327 41.8881 83.1875 41.5145 83.1875 41.125V16.1562C83.1875 15.7667 83.0327 15.3931 82.7573 15.1177C82.4818 14.8422 82.1082 14.6875 81.7187 14.6875H65.5625V17.625H80.25V39.6562H77.3125V36.7188C77.3125 36.3292 77.1577 35.9556 76.8823 35.6802C76.6068 35.4047 76.2332 35.25 75.8437 35.25H71.4375C71.1838 35.25 70.9345 35.3157 70.7138 35.4406C70.4931 35.5656 70.3085 35.7456 70.178 35.9631L65.7718 43.3068C65.6348 43.5351 65.5624 43.7963 65.5624 44.0625C65.5624 44.3287 65.6348 44.5899 65.7718 44.8182L70.178 52.1619C70.3085 52.3794 70.4931 52.5594 70.7138 52.6844C70.9345 52.8093 71.1838 52.875 71.4375 52.875H75.8437C76.2332 52.875 76.6068 52.7203 76.8823 52.4448C77.1577 52.1694 77.3125 51.7958 77.3125 51.4062V48.4688H83.1875C84.7451 48.467 86.2384 47.8475 87.3398 46.7461C88.4412 45.6447 89.0607 44.1514 89.0625 42.5938V14.6875C89.0607 13.1299 88.4412 11.6366 87.3398 10.5352C86.2384 9.43378 84.7451 8.81425 83.1875 8.8125Z" fill="#AEAEAE"/>
<path d="M0.9375 45.5312V73.4375C0.939249 74.9951 1.55878 76.4884 2.66018 77.5898C3.76158 78.6912 5.25489 79.3107 6.8125 79.3125H12.6875V82.25C12.6875 82.6395 12.8422 83.0131 13.1177 83.2886C13.3931 83.564 13.7667 83.7188 14.1562 83.7188H18.5625C18.8161 83.7188 19.0654 83.6531 19.2862 83.5281C19.5069 83.4031 19.6915 83.2232 19.822 83.0057L24.2282 75.6619C24.3652 75.4337 24.4375 75.1725 24.4375 74.9062C24.4375 74.64 24.3652 74.3788 24.2282 74.1506L19.822 66.8068C19.6915 66.5893 19.5069 66.4093 19.2862 66.2844C19.0654 66.1594 18.8161 66.0937 18.5625 66.0938H14.1562C13.7667 66.0938 13.3931 66.2485 13.1177 66.5239C12.8422 66.7994 12.6875 67.173 12.6875 67.5625V70.5H9.75V48.4688H24.4375V45.5312H8.28125C7.89171 45.5312 7.51813 45.686 7.24269 45.9614C6.96724 46.2369 6.8125 46.6105 6.8125 47V71.9688C6.8125 72.3583 6.96724 72.7319 7.24269 73.0073C7.51813 73.2828 7.89171 73.4375 8.28125 73.4375H14.1562C14.5458 73.4375 14.9194 73.2828 15.1948 73.0073C15.4703 72.7319 15.625 72.3583 15.625 71.9688V69.0312H17.731L21.256 74.9062L17.731 80.7812H15.625V77.8438C15.625 77.4542 15.4703 77.0806 15.1948 76.8052C14.9194 76.5297 14.5458 76.375 14.1562 76.375H6.8125C6.03371 76.3741 5.28708 76.0643 4.73639 75.5136C4.18571 74.9629 3.87592 74.2163 3.875 73.4375V45.5312C3.87592 44.7525 4.18571 44.0058 4.73639 43.4551C5.28708 42.9045 6.03371 42.5947 6.8125 42.5938H24.4375V39.6562H6.8125C5.25489 39.658 3.76158 40.2775 2.66018 41.3789C1.55878 42.4803 0.939249 43.9736 0.9375 45.5312Z" fill="#AEAEAE"/>
<path d="M36.1875 36.7188H39.125V39.6562H36.1875V36.7188Z" fill="#AEAEAE"/>
<path d="M42.0625 36.7188H53.8125V39.6562H42.0625V36.7188Z" fill="#AEAEAE"/>
<path d="M36.1875 42.5938H53.8125V45.5312H36.1875V42.5938Z" fill="#AEAEAE"/>
<path d="M36.1875 48.4688H53.8125V51.4062H36.1875V48.4688Z" fill="#AEAEAE"/>
<path d="M61.1562 0H28.8438C28.4542 0 28.0806 0.154743 27.8052 0.430187C27.5297 0.705631 27.375 1.07921 27.375 1.46875V24.9688C27.375 25.3583 27.5297 25.7319 27.8052 26.0073C28.0806 26.2828 28.4542 26.4375 28.8438 26.4375H43.5312V30.8438H28.8438C28.4542 30.8438 28.0806 30.9985 27.8052 31.2739C27.5297 31.5494 27.375 31.923 27.375 32.3125V55.8125C27.375 56.202 27.5297 56.5756 27.8052 56.8511C28.0806 57.1265 28.4542 57.2812 28.8438 57.2812H43.5312V61.6875H28.8438C28.4542 61.6875 28.0806 61.8422 27.8052 62.1177C27.5297 62.3931 27.375 62.7667 27.375 63.1562V86.6562C27.375 87.0458 27.5297 87.4194 27.8052 87.6948C28.0806 87.9703 28.4542 88.125 28.8438 88.125H61.1562C61.5458 88.125 61.9194 87.9703 62.1948 87.6948C62.4703 87.4194 62.625 87.0458 62.625 86.6562V63.1562C62.625 62.7667 62.4703 62.3931 62.1948 62.1177C61.9194 61.8422 61.5458 61.6875 61.1562 61.6875H46.4688V57.2812H61.1562C61.5458 57.2812 61.9194 57.1265 62.1948 56.8511C62.4703 56.5756 62.625 56.202 62.625 55.8125V32.3125C62.625 31.923 62.4703 31.5494 62.1948 31.2739C61.9194 30.9985 61.5458 30.8438 61.1562 30.8438H46.4688V26.4375H61.1562C61.5458 26.4375 61.9194 26.2828 62.1948 26.0073C62.4703 25.7319 62.625 25.3583 62.625 24.9688V1.46875C62.625 1.07921 62.4703 0.705631 62.1948 0.430187C61.9194 0.154743 61.5458 0 61.1562 0ZM59.6875 64.625V85.1875H30.3125V64.625H59.6875ZM59.6875 54.3438H30.3125V33.7812H59.6875V54.3438ZM59.6875 23.5H30.3125V2.9375H59.6875V23.5Z" fill="#AEAEAE"/>
<path d="M36.1875 5.875H39.125V8.8125H36.1875V5.875Z" fill="#AEAEAE"/>
<path d="M42.0625 5.875H53.8125V8.8125H42.0625V5.875Z" fill="#AEAEAE"/>
<path d="M36.1875 11.75H53.8125V14.6875H36.1875V11.75Z" fill="#AEAEAE"/>
<path d="M36.1875 17.625H53.8125V20.5625H36.1875V17.625Z" fill="#AEAEAE"/>
<path d="M36.1875 67.5625H39.125V70.5H36.1875V67.5625Z" fill="#AEAEAE"/>
<path d="M42.0625 67.5625H53.8125V70.5H42.0625V67.5625Z" fill="#AEAEAE"/>
<path d="M36.1875 73.4375H53.8125V76.375H36.1875V73.4375Z" fill="#AEAEAE"/>
<path d="M36.1875 79.3125H53.8125V82.25H36.1875V79.3125Z" fill="#AEAEAE"/>
</svg>
