<svg width="167" height="48" viewBox="0 0 167 48" fill="none" xmlns="http://www.w3.org/2000/svg">
<path fill-rule="evenodd" clip-rule="evenodd" d="M12.4362 0C15.4348 0 18.4333 0 21.4319 0C24.2754 4.0145 27.1189 7.97753 29.9624 11.992C32.8059 16.0065 35.6494 19.9696 38.4929 23.984C35.6494 27.9985 32.8059 31.9616 29.9624 35.9761C27.1189 39.9906 24.2754 43.9536 21.4319 47.9681C18.4333 47.9681 15.4348 47.9681 12.4362 47.9681C15.2797 44.0051 18.1231 39.9906 20.9666 35.9761C23.8101 31.9616 26.6536 27.9985 29.4971 23.984C26.6536 20.021 23.8101 16.0065 20.9666 11.992C18.1231 7.97753 15.2797 4.0145 12.4362 0Z" fill="#0095DA"/>
<path fill-rule="evenodd" clip-rule="evenodd" d="M24.8723 0C27.8591 0 30.8458 0 33.8325 0C36.7163 4.0145 39.5485 8.029 42.3808 11.992C45.2131 16.0065 48.0453 19.9696 50.9291 23.984C48.0453 27.9471 45.2131 31.9616 42.3808 35.9761C39.5485 39.9906 36.7163 43.9536 33.884 47.9681C30.8973 47.9681 27.9106 47.9681 24.9238 47.9681C27.7561 44.0051 30.5883 39.9906 33.4206 35.9761C36.2528 31.9616 39.0851 27.9985 41.9173 23.984C39.0851 20.021 36.2528 16.0065 33.4206 11.992C30.5368 7.97753 27.7046 4.0145 24.8723 0Z" fill="#8ED8F8"/>
<path fill-rule="evenodd" clip-rule="evenodd" d="M0 0C2.99859 0 5.99719 0 8.99578 0C11.8393 4.0145 14.6828 7.97753 17.5263 11.992C20.3698 16.0065 23.2133 19.9696 26.0567 23.984C23.2133 27.9985 20.3698 31.9616 17.5263 35.9761C14.6828 39.9906 11.8393 43.9536 8.99578 47.9681C5.99719 47.9681 2.99859 47.9681 0 47.9681C2.84349 44.0051 5.68699 39.9906 8.53048 35.9761C11.374 31.9616 14.2175 27.9985 17.061 23.984C14.2175 20.021 11.374 16.0065 8.53048 11.992C5.68699 7.97753 2.84349 4.0145 0 0Z" fill="#005677"/>
<path fill-rule="evenodd" clip-rule="evenodd" d="M69.1783 46.1189L67.4722 41.6208C67.0068 41.9827 66.283 42.2929 65.4557 42.2929C63.4393 42.2929 62.3019 40.1731 62.3019 36.7607C62.3019 33.3483 63.3876 31.2285 65.4557 31.2285C66.283 31.2285 67.0068 31.5387 67.4722 31.9006L69.1783 27.5059C68.196 26.8855 66.4898 26.4201 64.7319 26.4201C60.1304 26.4201 56.6146 29.8842 56.6146 36.8124C56.6146 43.7406 60.1304 47.2047 64.7319 47.2047C66.5932 47.2047 68.196 46.7393 69.1783 46.1189ZM81.587 46.8427V42.2412H76.7787V26.7821H71.2465V46.8944H81.587V46.8427ZM101.234 46.8427L94.978 26.7304H88.3601L82.104 46.8427H87.8948L88.7737 43.3787H94.5644L95.4434 46.8427H101.234ZM93.5821 39.4492H89.8078L91.2037 33.9687C91.5139 32.7279 91.6691 31.3836 91.6691 31.3836H91.7208C91.7208 31.3836 91.8759 32.7279 92.1861 33.9687L93.5821 39.4492ZM108.007 46.8427V26.7821H102.475V46.8944H108.007V46.8427ZM133.135 46.8427L130.808 26.7821H124.655L122.225 35.6749C121.915 36.9158 121.657 38.4152 121.657 38.4152H121.605C121.605 38.4152 121.346 36.9158 121.036 35.6749L118.606 26.7821H112.454L110.127 46.8427H115.246L116.124 36.5022C116.228 35.1062 116.331 33.5034 116.331 33.5034H116.383C116.383 33.5034 116.693 35.1062 117.055 36.5022L120.002 46.8427H123.259L126.207 36.5022C126.62 35.1062 126.879 33.5034 126.879 33.5034H126.93C126.93 33.5034 127.034 35.1062 127.137 36.5022L128.016 46.8427H133.135ZM146.991 40.6384C146.991 36.9158 143.941 35.4681 141.924 34.3824C140.942 33.8136 140.218 33.2966 140.218 32.5728C140.218 31.8489 140.735 31.2285 141.821 31.2285C143.01 31.2285 144.199 31.6938 144.871 32.0557L146.526 27.6093C145.388 26.9889 143.682 26.5235 141.511 26.5235C137.064 26.5235 134.634 29.1604 134.634 32.9864C134.634 36.7607 137.529 38.3118 139.494 39.2941C140.476 39.8112 141.252 40.2765 141.252 41.052C141.252 41.7242 140.735 42.3446 139.598 42.3446C138.408 42.3446 137.064 41.931 136.133 41.4139L134.376 46.2223C135.513 46.8427 137.788 47.3081 139.856 47.3081C144.613 47.2047 146.991 44.4644 146.991 40.6384Z" fill="#293036"/>
<path fill-rule="evenodd" clip-rule="evenodd" d="M71.0913 20.5777V9.72014H64.4734V12.1502H68.1443V18.613C67.7307 18.8198 66.6966 19.0266 65.4557 19.0266C62.5087 19.0266 59.7684 16.5966 59.7684 11.3229C59.7684 6.04924 62.6121 3.61921 65.9728 3.61921C67.6273 3.61921 68.9715 4.03283 69.7988 4.49816L70.8328 2.01642C69.8505 1.39599 67.9375 0.982367 65.8694 0.982367C60.4923 0.982367 56.6146 4.80837 56.6146 11.3229C56.6146 17.8892 60.3372 21.6635 65.6109 21.6635C68.0409 21.6118 70.0056 21.1465 71.0913 20.5777ZM85.6198 21.3016V18.6647H78.1746V12.357H84.9994V9.77184H78.1746V3.87772H85.6198V1.24088H75.0725V21.3533H85.6198V21.3016ZM103.768 21.3016V1.24088H101.027V13.9598C101.027 15.2006 101.079 16.5449 101.079 16.5449H101.027C101.027 16.5449 100.459 15.304 99.8381 14.3217L91.7725 1.24088H88.9288V21.3533H91.6691V8.22076C91.6691 6.97989 91.6174 5.68732 91.6174 5.68732H91.6691C91.6691 5.68732 92.1861 6.92819 92.8582 7.96224L101.079 21.3016H103.768ZM118.348 21.3016V18.6647H110.903V12.357H117.727V9.77184H110.903V3.87772H118.348V1.24088H107.8V21.3533H118.348V21.3016ZM135.823 21.3016L132.824 14.7353C132.256 13.4427 131.48 12.4087 130.446 11.8917V11.84C132.824 11.3229 134.737 9.82355 134.737 6.77308C134.737 3.20559 132.256 0.930664 127.396 0.930664C125.328 0.930664 123.156 1.34429 121.657 2.01642V21.3533H124.759V12.8223H126.517C128.068 12.8223 128.998 13.6496 129.619 14.9938L132.463 21.3533H135.823V21.3016ZM131.687 6.92819C131.687 9.51333 130.033 10.5474 127.189 10.5474H124.811V3.77432C125.431 3.5158 126.517 3.3607 127.499 3.3607C130.343 3.3607 131.687 4.70497 131.687 6.92819ZM154.54 21.3016L147.611 1.24088H143.941L137.012 21.3016H140.27L142.028 15.9762H149.473L151.231 21.3016H154.54ZM148.852 13.7013H142.7L145.181 6.20435C145.543 5.11859 145.75 3.82602 145.75 3.82602H145.802C145.802 3.82602 146.009 5.11859 146.371 6.20435L148.852 13.7013ZM167 21.3016V18.6647H160.072V1.24088H156.918V21.3533H167V21.3016Z" fill="#293036"/>
</svg>
