<?xml version="1.0" ?><svg id="Layer_1" style="enable-background:new 0 0 65 65;" version="1.1" viewBox="0 0 65 65" xml:space="preserve" xmlns="http://www.w3.org/2000/svg" xmlns:xlink="http://www.w3.org/1999/xlink"><style type="text/css">
	.st0{fill:#FFFFFF;}
	.st1{fill:#183651;}
	.st2{fill:#E1E6E8;}
	.st3{fill:#F05F50;}
	.st4{fill:#FCBD5E;}
	.st5{fill:#2AA0DA;}
	.st6{fill:#CFD0D1;}
	.st7{fill:#173651;}
	.st8{fill:#4EBD9E;}
	.st9{fill:#231F20;}
</style><g><g id="XMLID_1866_"><circle class="st5" cx="32.5" cy="20.8" r="20.3"/></g><g id="XMLID_1848_"><g id="XMLID_1852_"><path class="st0" d="M45.3,22.4v-3.3l-3.1-0.6c-0.3-1.1-0.7-2.1-1.3-3.1l1.8-2.6l-2.3-2.3l-2.6,1.8c-0.9-0.6-2-1-3.1-1.3L34.2,8     h-3.3l-0.6,3.1c-1.1,0.3-2.1,0.7-3.1,1.3l-2.6-1.8l-2.3,2.3l1.8,2.6c-0.6,0.9-1,2-1.3,3.1l-3.1,0.6v3.3l3.1,0.6     c0.3,1.1,0.7,2.1,1.3,3.1l-1.8,2.6l2.3,2.3l2.6-1.8c0.9,0.6,2,1,3.1,1.3l0.6,3.1h3.3l0.6-3.1c1.1-0.3,2.1-0.7,3.1-1.3l2.6,1.8     l2.3-2.3L40.9,26c0.6-0.9,1-2,1.3-3.1L45.3,22.4z"/><path class="st1" d="M34.2,34.6h-3.3c-0.5,0-0.9-0.3-1-0.8l-0.4-2.5c-0.7-0.2-1.5-0.5-2.1-0.9l-2.1,1.5c-0.4,0.3-0.9,0.2-1.3-0.1     l-2.3-2.3c-0.3-0.3-0.4-0.9-0.1-1.3l1.5-2.1c-0.4-0.7-0.7-1.4-0.9-2.1l-2.5-0.4c-0.5-0.1-0.8-0.5-0.8-1v-3.3c0-0.5,0.3-0.9,0.8-1     l2.5-0.4c0.2-0.7,0.5-1.5,0.9-2.1l-1.5-2.1c-0.3-0.4-0.2-0.9,0.1-1.3l2.3-2.3c0.3-0.3,0.9-0.4,1.3-0.1l2.1,1.5     c0.7-0.4,1.4-0.7,2.1-0.9l0.4-2.5c0.1-0.5,0.5-0.8,1-0.8h3.3c0.5,0,0.9,0.3,1,0.8l0.4,2.5c0.7,0.2,1.5,0.5,2.1,0.9l2.1-1.5     c0.4-0.3,0.9-0.2,1.3,0.1l2.3,2.3c0.3,0.3,0.4,0.9,0.1,1.3l-1.5,2.1c0.4,0.7,0.7,1.4,0.9,2.1l2.5,0.4c0.5,0.1,0.8,0.5,0.8,1v3.3     c0,0.5-0.3,0.9-0.8,1L43,23.8c-0.2,0.7-0.5,1.5-0.9,2.1l1.5,2.1c0.3,0.4,0.2,0.9-0.1,1.3l-2.3,2.3c-0.3,0.3-0.9,0.4-1.3,0.1     l-2.1-1.5c-0.7,0.4-1.4,0.7-2.1,0.9l-0.4,2.5C35.1,34.2,34.6,34.6,34.2,34.6z M31.7,32.6h1.6l0.4-2.3c0.1-0.4,0.4-0.7,0.8-0.8     c1-0.2,1.9-0.6,2.8-1.1c0.3-0.2,0.8-0.2,1.1,0l1.9,1.4l1.2-1.2l-1.4-1.9c-0.2-0.3-0.2-0.8,0-1.1c0.5-0.9,0.9-1.8,1.1-2.8     c0.1-0.4,0.4-0.7,0.8-0.8l2.3-0.4v-1.6L42,19.5c-0.4-0.1-0.7-0.4-0.8-0.8c-0.2-1-0.6-1.9-1.1-2.8c-0.2-0.3-0.2-0.8,0-1.1l1.4-1.9     l-1.2-1.2l-1.9,1.4c-0.3,0.2-0.8,0.2-1.1,0c-0.9-0.5-1.8-0.9-2.8-1.1c-0.4-0.1-0.7-0.4-0.8-0.8L33.3,9h-1.6l-0.4,2.3     c-0.1,0.4-0.4,0.7-0.8,0.8c-1,0.2-1.9,0.6-2.8,1.1c-0.3,0.2-0.8,0.2-1.1,0l-1.9-1.4L23.6,13l1.4,1.9c0.2,0.3,0.2,0.8,0,1.1     c-0.5,0.9-0.9,1.8-1.1,2.8c-0.1,0.4-0.4,0.7-0.8,0.8l-2.3,0.4v1.6L23,22c0.4,0.1,0.7,0.4,0.8,0.8c0.2,1,0.6,1.9,1.1,2.8     c0.2,0.3,0.2,0.8,0,1.1l-1.4,1.9l1.2,1.2l1.9-1.4c0.3-0.2,0.8-0.2,1.1,0c0.9,0.5,1.8,0.9,2.8,1.1c0.4,0.1,0.7,0.4,0.8,0.8     L31.7,32.6z"/></g></g><g id="XMLID_1838_"><path class="st2" d="M32.5,13.7L32.5,13.7c-3.9,0-7.1,3.2-7.1,7.1l0,0c0,3.9,3.2,7.1,7.1,7.1h0c3.9,0,7.1-3.2,7.1-7.1l0,0    C39.6,16.9,36.4,13.7,32.5,13.7z"/></g><g id="XMLID_1836_"><circle class="st3" cx="6.7" cy="58.3" r="5.2"/><path class="st1" d="M6.7,64.5c-3.4,0-6.2-2.8-6.2-6.2c0-3.4,2.8-6.2,6.2-6.2c3.4,0,6.2,2.8,6.2,6.2C12.9,61.7,10.1,64.5,6.7,64.5    z M6.7,54.1c-2.3,0-4.2,1.9-4.2,4.2c0,2.3,1.9,4.2,4.2,4.2c2.3,0,4.2-1.9,4.2-4.2C10.9,56,9,54.1,6.7,54.1z"/></g><g id="XMLID_1839_"><circle class="st4" cx="23.9" cy="58.3" r="5.2"/><path class="st1" d="M23.9,64.5c-3.4,0-6.2-2.8-6.2-6.2c0-3.4,2.8-6.2,6.2-6.2c3.4,0,6.2,2.8,6.2,6.2    C30.1,61.7,27.3,64.5,23.9,64.5z M23.9,54.1c-2.3,0-4.2,1.9-4.2,4.2c0,2.3,1.9,4.2,4.2,4.2c2.3,0,4.2-1.9,4.2-4.2    C28.1,56,26.2,54.1,23.9,54.1z"/></g><g id="XMLID_1840_"><circle class="st3" cx="41.1" cy="58.3" r="5.2"/><path class="st1" d="M41.1,64.5c-3.4,0-6.2-2.8-6.2-6.2c0-3.4,2.8-6.2,6.2-6.2s6.2,2.8,6.2,6.2C47.3,61.7,44.5,64.5,41.1,64.5z     M41.1,54.1c-2.3,0-4.2,1.9-4.2,4.2c0,2.3,1.9,4.2,4.2,4.2c2.3,0,4.2-1.9,4.2-4.2C45.3,56,43.4,54.1,41.1,54.1z"/></g><g id="XMLID_1841_"><circle class="st4" cx="58.3" cy="58.3" r="5.2"/><path class="st1" d="M58.3,64.5c-3.4,0-6.2-2.8-6.2-6.2c0-3.4,2.8-6.2,6.2-6.2c3.4,0,6.2,2.8,6.2,6.2    C64.5,61.7,61.7,64.5,58.3,64.5z M58.3,54.1c-2.3,0-4.2,1.9-4.2,4.2c0,2.3,1.9,4.2,4.2,4.2c2.3,0,4.2-1.9,4.2-4.2    C62.5,56,60.6,54.1,58.3,54.1z"/></g><g id="XMLID_1842_"><path class="st1" d="M58.3,54.1c-0.6,0-1-0.4-1-1v-7.9H7.7v7.9c0,0.6-0.4,1-1,1c-0.6,0-1-0.4-1-1v-8.9c0-0.6,0.4-1,1-1h51.6    c0.6,0,1,0.4,1,1v8.9C59.3,53.7,58.9,54.1,58.3,54.1z"/></g><g id="XMLID_1843_"><path class="st1" d="M41.1,54.1c-0.6,0-1-0.4-1-1v-8.9c0-0.6,0.4-1,1-1c0.6,0,1,0.4,1,1v8.9C42.1,53.7,41.7,54.1,41.1,54.1z"/></g><g id="XMLID_1844_"><path class="st1" d="M23.9,54.1c-0.6,0-1-0.4-1-1v-8.9c0-0.6,0.4-1,1-1c0.6,0,1,0.4,1,1v8.9C24.9,53.7,24.4,54.1,23.9,54.1z"/></g><g id="XMLID_1846_"><path class="st0" d="M32.5,17.7L32.5,17.7c-1.7,0-3.1,1.4-3.1,3.1l0,0c0,1.7,1.4,3.1,3.1,3.1l0,0c1.7,0,3.1-1.4,3.1-3.1l0,0    C35.6,19.1,34.2,17.7,32.5,17.7z"/><path class="st1" d="M32.5,24.9c-2.3,0-4.1-1.8-4.1-4.1s1.8-4.1,4.1-4.1c2.3,0,4.1,1.8,4.1,4.1S34.8,24.9,32.5,24.9z M32.5,18.7    c-1.2,0-2.1,0.9-2.1,2.1c0,1.2,0.9,2.1,2.1,2.1c1.2,0,2.1-0.9,2.1-2.1C34.6,19.6,33.7,18.7,32.5,18.7z"/></g><g id="XMLID_1845_"><path class="st1" d="M32.5,45.3c-0.6,0-1-0.4-1-1V33.6c0-0.6,0.4-1,1-1c0.6,0,1,0.4,1,1v10.7C33.5,44.8,33.1,45.3,32.5,45.3z"/></g><g id="XMLID_1857_"><g id="XMLID_1860_"><rect class="st1" height="2" width="2" x="46.2" y="48.1"/></g><g id="XMLID_1859_"><rect class="st1" height="2" width="2" x="51.2" y="48.1"/></g></g><g id="XMLID_4593_"><g id="XMLID_4581_"><g id="XMLID_4584_"><rect class="st1" height="2.1" transform="matrix(0.9191 -0.394 0.394 0.9191 -9.2477 9.1695)" width="2" x="16.7" y="26.1"/></g><g id="XMLID_4583_"><rect class="st1" height="2.1" transform="matrix(0.9191 -0.394 0.394 0.9191 -1.8557 19.7997)" width="2" x="46.3" y="13.4"/></g></g><g id="XMLID_4578_"><g id="XMLID_4586_"><rect class="st1" height="2.1" transform="matrix(0.3712 -0.9285 0.9285 0.3712 -16.4784 47.0836)" width="2" x="25.5" y="34.7"/></g><g id="XMLID_4585_"><rect class="st1" height="2.1" transform="matrix(0.3712 -0.9285 0.9285 0.3712 18.7901 39.3821)" width="2" x="37.5" y="4.8"/></g></g><g id="XMLID_4587_"><g id="XMLID_4589_"><rect class="st1" height="2" transform="matrix(0.9191 -0.3941 0.3941 0.9191 -10.8684 18.184)" width="2.1" x="37.8" y="34.6"/></g><g id="XMLID_4588_"><rect class="st1" height="2" transform="matrix(0.9191 -0.3941 0.3941 0.9191 -0.2358 10.79)" width="2.1" x="25.1" y="5"/></g></g><g id="XMLID_4590_"><g id="XMLID_4592_"><rect class="st1" height="2" transform="matrix(0.3712 -0.9286 0.9286 0.3712 5.0072 60.8699)" width="2.1" x="46.4" y="25.7"/></g><g id="XMLID_4591_"><rect class="st1" height="2" transform="matrix(0.3712 -0.9286 0.9286 0.3712 -2.694 25.5973)" width="2.1" x="16.5" y="13.8"/></g></g></g><g id="XMLID_1858_"><g id="XMLID_1862_"><rect class="st1" height="2" width="2" x="29" y="48.1"/></g><g id="XMLID_1861_"><rect class="st1" height="2" width="2" x="34" y="48.1"/></g></g><g id="XMLID_1863_"><g id="XMLID_1865_"><rect class="st1" height="2" width="2" x="11.8" y="48.1"/></g><g id="XMLID_1864_"><rect class="st1" height="2" width="2" x="16.8" y="48.1"/></g></g></g></svg>