<?xml version="1.0" ?><svg data-name="Finance 1" height="60" id="Finance_1" viewBox="0 0 60 60" width="60" xmlns="http://www.w3.org/2000/svg"><title/><circle cx="8" cy="54" r="3" style="fill:#ff9797"/><path d="M30,48a.99974.99974,0,0,1-1-1V35.42627a30.79677,30.79677,0,0,1,9.08008-21.91992L49.293,2.293A.99989.99989,0,0,1,50.707,3.707L39.49414,14.92041A28.81043,28.81043,0,0,0,31,35.42627V47A.99974.99974,0,0,1,30,48Z" style="fill:#6d6daa"/><g style="opacity:0.5"><path d="M52,52a1.39038,1.39038,0,0,1-.2002-.02.649.649,0,0,1-.17969-.06006.762.762,0,0,1-.18066-.09033A1.52619,1.52619,0,0,1,51.29,51.71a1.6816,1.6816,0,0,1-.12012-.1499.73882.73882,0,0,1-.08984-.18018.65357.65357,0,0,1-.06055-.18018A1.38272,1.38272,0,0,1,51,51a1,1,0,0,1,.08008-.38037,1.15153,1.15153,0,0,1,.21-.32959,1.04669,1.04669,0,0,1,1.41992,0,1.02671,1.02671,0,0,1,.21.32959A1,1,0,0,1,53,51a1.03393,1.03393,0,0,1-.29.71A1.05423,1.05423,0,0,1,52,52Z" style="fill:#6d6daa"/><path d="M48.53027,48.66992a.99839.99839,0,0,1,.15918-1.3999h0a1.00334,1.00334,0,0,1,1.41016.15967h0a.99852.99852,0,0,1-.16016,1.3999h0a1.00272,1.00272,0,0,1-.62988.22021h0A.99625.99625,0,0,1,48.53027,48.66992ZM46.2998,45.06006A.99112.99112,0,0,1,46.83008,43.75h0a.99417.99417,0,0,1,1.30957.52979h0a.99112.99112,0,0,1-.53027,1.31006h0a1.09,1.09,0,0,1-.38965.08008h0A.99875.99875,0,0,1,46.2998,45.06006Zm-.87988-4.25V40.7998h0A.99409.99409,0,0,1,46.39941,39.79h0a1.00441,1.00441,0,0,1,1.02051.98975h0A1.01038,1.01038,0,0,1,46.42969,41.79h-.00977A.99281.99281,0,0,1,45.41992,40.81006Zm1.25-3a.98284.98284,0,0,1-.75-1.19043h0a.99539.99539,0,0,1,1.18945-.75977h0a1.01176,1.01176,0,0,1,.76074,1.2002h0a1.0035,1.0035,0,0,1-.98047.77979h0A.85035.85035,0,0,1,46.66992,37.81006Z" style="fill:#6d6daa"/><path d="M48,34a.99042.99042,0,0,1-1-1,.83229.83229,0,0,1,.08008-.38037,1.02671,1.02671,0,0,1,.21-.32959,1.04669,1.04669,0,0,1,1.41992,0,1.02671,1.02671,0,0,1,.21.32959A1,1,0,0,1,49,33a.99042.99042,0,0,1-1,1Z" style="fill:#6d6daa"/></g><circle cx="30" cy="52" r="5" style="fill:#b1f1a8"/><path d="M30,58a6,6,0,1,1,6-6A6.00656,6.00656,0,0,1,30,58Zm0-10a4,4,0,1,0,4,4A4.00427,4.00427,0,0,0,30,48Z" style="fill:#6d6daa"/><path d="M7.16992,47.56006a.99681.99681,0,0,1,.26953-1.39014H7.4502a.99768.99768,0,0,1,1.37988.27h0a1.00138,1.00138,0,0,1-.28027,1.38965h.00977A.98966.98966,0,0,1,8,48H8A1.01136,1.01136,0,0,1,7.16992,47.56006Zm3.2002-2.40039A.98911.98911,0,0,1,10.28027,43.75h0a.988.988,0,0,1,1.40918-.09033h0a.9901.9901,0,0,1,.09082,1.41016h0a1.01246,1.01246,0,0,1-.75.33984h0A.972.972,0,0,1,10.37012,45.15967Zm2.37012-3.21a1.00766,1.00766,0,0,1-.59082-1.29h0a1.00383,1.00383,0,0,1,1.29-.58984h0a1.01211,1.01211,0,0,1,.59082,1.29h0a1.01278,1.01278,0,0,1-.94043.6499h0A1.02378,1.02378,0,0,1,12.74023,41.94971Zm1.0293-3.85986a.98936.98936,0,0,1-.96-1.02979h0a.9913.9913,0,0,1,1.03027-.97021h0a1.01,1.01,0,0,1,.96973,1.02979H14.7998a.98786.98786,0,0,1-.99023.97021h-.04Zm-1.21-4.8501a1.018,1.018,0,0,1,.86035-1.12988h0A1.00246,1.00246,0,0,1,14.54,32.98h.00977a1.00717,1.00717,0,0,1-.87012,1.11963h0c-.04,0-.08984.01025-.12988.01025h0A1.00967,1.00967,0,0,1,12.55957,33.23975Zm-.58008-3.96a.996.996,0,0,1,.86035-1.12012h0a.99549.99549,0,0,1,1.12988.8501h0a1.00879,1.00879,0,0,1-.86035,1.12988h0c-.0498,0-.08984.01025-.13965.01025h0A1.00967,1.00967,0,0,1,11.97949,29.27979Zm.68066-3.12012a1.00288,1.00288,0,0,1-.98047-1.02h0a1.00323,1.00323,0,0,1,1.02051-.98h0a.99694.99694,0,0,1,.97949,1.02h0a.99673.99673,0,0,1-.99023.98h-.0293Zm.37988-3.98a.99941.99941,0,0,1-.57031-1.2998h0a.996.996,0,0,1,1.29-.56006h0a.99237.99237,0,0,1,.57031,1.29h0a1.00511,1.00511,0,0,1-.93066.64014h0A.88207.88207,0,0,1,13.04,22.17969Zm1.83984-3.54A.99521.99521,0,0,1,14.87012,17.23h0a.99586.99586,0,0,1,1.41016-.01025h0A.988.988,0,0,1,16.29,18.62988h0a.9779.9779,0,0,1-.71.2998h0A.95862.95862,0,0,1,14.87988,18.63965Z" style="fill:#6d6daa;opacity:0.5"/><circle cx="52" cy="54" r="3" style="fill:#ff9797"/><path d="M8,58a4,4,0,1,1,4-4A4.00427,4.00427,0,0,1,8,58Zm0-6a2,2,0,1,0,2,2A2.00229,2.00229,0,0,0,8,52Z" style="fill:#6d6daa"/><path d="M30,58a6,6,0,1,1,6-6A6.00656,6.00656,0,0,1,30,58Zm0-10a4,4,0,1,0,4,4A4.00427,4.00427,0,0,0,30,48Z" style="fill:#6d6daa"/><path d="M52,58a4,4,0,1,1,4-4A4.00427,4.00427,0,0,1,52,58Zm0-6a2,2,0,1,0,2,2A2.00229,2.00229,0,0,0,52,52Z" style="fill:#6d6daa"/><path d="M50,14a.99974.99974,0,0,1-1-1V4H40a1,1,0,0,1,0-2H50a.99974.99974,0,0,1,1,1V13A.99974.99974,0,0,1,50,14Z" style="fill:#6d6daa"/><path d="M45,30a1,1,0,0,1-.707-1.707l6-6A.99989.99989,0,0,1,51.707,23.707l-6,6A.99676.99676,0,0,1,45,30Z" style="fill:#6d6daa"/><path d="M51,30a.99676.99676,0,0,1-.707-.293l-6-6A.99989.99989,0,0,1,45.707,22.293l6,6A1,1,0,0,1,51,30Z" style="fill:#6d6daa"/><path d="M13,14a1,1,0,0,1-.707-1.707l6-6A.99989.99989,0,0,1,19.707,7.707l-6,6A.99676.99676,0,0,1,13,14Z" style="fill:#6d6daa"/><path d="M19,14a.99676.99676,0,0,1-.707-.293l-6-6A.99989.99989,0,0,1,13.707,6.293l6,6A1,1,0,0,1,19,14Z" style="fill:#6d6daa"/></svg>