<?xml version="1.0" ?><!DOCTYPE svg  PUBLIC '-//W3C//DTD SVG 1.1//EN'  'http://www.w3.org/Graphics/SVG/1.1/DTD/svg11.dtd'><svg enable-background="new 0 0 128 128" height="128px" id="Layer_1" version="1.1" viewBox="0 0 128 128" width="128px" xml:space="preserve" xmlns="http://www.w3.org/2000/svg" xmlns:xlink="http://www.w3.org/1999/xlink"><path d="M45,24V8h37v16H45z M78,20v-8H49v8H78z" fill="#3B97D3"/><path d="M45,47V31h37v16H45z M78,43v-8H49v8H78z" fill="#3B97D3"/><path d="M45,71V55h37v16H45z M78,67v-8H49v8H78z" fill="#3B97D3"/><path d="M45,95V79h37v16H45z M78,91v-8H49v8H78z" fill="#3B97D3"/><path d="M108,16.5H84v2h24c3.3,0,6,2.7,6,6v8c0,3.3-2.7,6-6,6H88.6l4.7-4.7c0.4-0.4,0.4-1,0-1.4s-1-0.4-1.4,0  l-6.4,6.4c-0.3,0.3-0.4,0.9-0.1,1.3c0,0,0,0.1,0.1,0.1l6.3,6.3c0.2,0.2,0.5,0.3,0.7,0.3s0.5-0.1,0.7-0.3c0.4-0.4,0.4-1,0-1.4  l-4.6-4.6H108c4.4,0,8-3.6,8-8v-8C116,20.1,112.4,16.5,108,16.5z" fill="#2C3E50"/><path d="M108,63.9H84v2h24c3.3,0,6,2.7,6,6v8c0,3.3-2.7,6-6,6H88.6l4.7-4.7c0.4-0.4,0.4-1,0-1.4s-1-0.4-1.4,0  l-6.4,6.4c-0.3,0.3-0.4,0.9-0.1,1.3c0,0,0,0.1,0.1,0.1l6.3,6.3c0.2,0.2,0.5,0.3,0.7,0.3s0.5-0.1,0.7-0.3c0.4-0.4,0.4-1,0-1.4  l-4.6-4.6H108c4.4,0,8-3.6,8-8v-8C116,67.5,112.4,63.9,108,63.9z" fill="#2C3E50"/><path d="M19.2,39.9h24v2h-24c-3.3,0-6,2.7-6,6v8c0,3.3,2.7,6,6,6h19.4L34,57.1c-0.4-0.4-0.4-1,0-1.4s1-0.4,1.4,0  l6.4,6.4c0.3,0.3,0.4,0.9,0.1,1.3c0,0,0,0.1-0.1,0.1l-6.3,6.3c-0.2,0.2-0.5,0.3-0.7,0.3s-0.5-0.1-0.7-0.3c-0.4-0.4-0.4-1,0-1.4  l4.6-4.6H19.2c-4.4,0-8-3.6-8-8v-8C11.2,43.5,14.8,39.9,19.2,39.9z" fill="#2C3E50"/><path d="M45,119v-16h37v16H45z M78,115v-8H49v8H78z" fill="#3B97D3"/><path d="M19.2,87.9h24v2h-24c-3.3,0-6,2.7-6,6v8c0,3.3,2.7,6,6,6h19.4l-4.7-4.7c-0.4-0.4-0.4-1,0-1.4s1-0.4,1.4,0  l6.4,6.4c0.3,0.3,0.4,0.9,0.1,1.3c0,0,0,0.1-0.1,0.1l-6.3,6.3c-0.2,0.2-0.5,0.3-0.7,0.3s-0.5-0.1-0.7-0.3c-0.4-0.4-0.4-1,0-1.4  l4.6-4.6H19.2c-4.4,0-8-3.6-8-8v-8C11.2,91.5,14.8,87.9,19.2,87.9z" fill="#2C3E50"/></svg>